<?xml version="1.0" standalone="no"?>
<!DOCTYPE svg PUBLIC "-//W3C//DTD SVG 20010904//EN"
 "http://www.w3.org/TR/2001/REC-SVG-20010904/DTD/svg10.dtd">
<svg version="1.0" xmlns="http://www.w3.org/2000/svg"
 width="512.000000pt" height="512.000000pt" viewBox="0 0 512.000000 512.000000"
 preserveAspectRatio="xMidYMid meet">
<metadata>
Created by potrace 1.14, written by Peter Selinger 2001-2017
</metadata>
<g transform="translate(0.000000,512.000000) scale(0.100000,-0.100000)"
fill="#000000" stroke="none">
<path d="M2285 4510 c-27 -4 -72 -10 -100 -14 -154 -21 -394 -95 -476 -148
-30 -19 -94 -56 -144 -83 -169 -90 -292 -182 -435 -325 -265 -265 -453 -615
-529 -986 -30 -146 -36 -217 -36 -409 1 -158 3 -178 32 -290 18 -66 34 -131
37 -145 7 -33 88 -259 120 -335 14 -33 26 -66 26 -73 0 -15 58 -120 71 -128 9
-5 1 24 -11 41 -13 17 -22 55 -13 55 4 0 23 -32 42 -71 38 -79 120 -199 176
-256 19 -20 35 -43 35 -51 0 -19 116 -130 190 -183 30 -21 73 -52 95 -68 22
-15 72 -49 111 -75 39 -25 91 -66 115 -91 44 -46 56 -54 159 -105 58 -29 224
-89 300 -109 25 -7 106 -23 180 -35 115 -20 164 -23 330 -21 211 3 347 21 523
71 252 72 557 231 677 353 30 31 89 85 130 121 96 82 171 161 167 175 -2 5 15
37 38 70 82 116 123 192 163 306 23 63 41 111 41 108 1 -4 -8 -51 -20 -105
-11 -55 -22 -108 -24 -119 -1 -11 -7 -38 -12 -60 -5 -22 -8 -53 -6 -70 2 -16
5 -43 6 -60 2 -16 0 -40 -4 -51 -4 -13 -3 -26 4 -33 6 -6 15 -44 19 -84 9
-100 17 -137 35 -164 16 -24 16 -24 34 -4 27 29 66 15 82 -31 11 -30 -12 -31
-24 -1 l-11 28 -12 -28 -12 -28 -13 23 c-6 13 -9 15 -7 6 3 -10 -1 -21 -8 -25
-17 -10 -27 -119 -14 -153 7 -20 11 -22 18 -10 5 8 20 15 32 15 16 0 24 7 26
23 4 26 10 27 38 7 12 -8 24 -12 27 -8 4 3 18 -2 33 -11 14 -10 29 -14 32 -10
4 4 1 9 -5 11 -19 7 -16 20 8 44 16 16 19 27 13 47 -4 15 -8 77 -9 137 -4 140
-12 227 -30 290 -14 52 -14 174 2 425 4 69 6 163 6 210 -5 232 -4 385 1 715 5
388 10 499 20 532 4 12 8 86 11 165 2 78 6 168 9 198 13 126 15 191 5 217 -6
15 -12 46 -15 68 -8 60 -23 103 -39 109 -9 3 -15 18 -15 35 0 39 -10 62 -22
55 -6 -4 -8 1 -4 14 4 11 2 23 -4 27 -5 3 -10 3 -11 -2 0 -4 -2 -17 -5 -28 -2
-11 -6 -58 -9 -105 -3 -47 -8 -98 -12 -115 -4 -16 -6 -34 -4 -39 4 -15 -21
-56 -31 -50 -4 3 -8 21 -8 40 0 19 -4 34 -10 34 -6 0 -10 -26 -10 -59 0 -38
-5 -65 -14 -74 -20 -20 -34 -105 -26 -158 6 -45 -10 -96 -36 -112 -11 -7 -14
-33 -16 -169 0 -39 -14 -51 -25 -22 -3 9 -8 12 -12 5 -5 -7 -5 -546 0 -671 1
-39 -11 -258 -16 -278 -3 -12 -8 -51 -11 -87 -2 -36 -9 -77 -14 -90 -5 -14 -8
-25 -5 -25 5 0 -59 -191 -73 -215 -6 -11 -36 -71 -66 -133 -67 -136 -103 -193
-212 -337 -142 -188 -249 -288 -404 -377 -140 -80 -338 -158 -460 -182 -14 -3
-61 -12 -105 -22 -113 -24 -435 -24 -563 0 -173 32 -389 101 -512 164 -158 81
-209 113 -330 212 -108 87 -123 101 -177 167 -17 21 -43 52 -57 68 -57 64
-182 274 -233 390 -51 117 -118 343 -111 373 2 6 -2 28 -19 127 -9 53 -10 273
-1 338 9 70 50 295 79 437 10 52 35 128 54 168 19 41 35 83 35 94 0 20 30 91
36 85 2 -1 -4 -28 -12 -60 -23 -89 -32 -147 -24 -152 12 -8 -1 -88 -17 -105
-13 -13 -14 -10 -8 23 5 23 3 37 -3 37 -35 0 -22 -328 24 -585 16 -91 78 -274
129 -382 121 -257 372 -513 590 -602 44 -18 85 -37 90 -42 27 -21 305 -92 405
-104 62 -6 154 -15 220 -19 63 -4 237 26 323 56 73 25 218 99 264 134 151 115
310 338 372 521 21 63 47 194 57 288 3 28 8 61 11 75 10 41 5 95 -23 255 -24
141 -110 311 -201 396 -101 95 -263 179 -393 204 -8 2 -34 8 -57 14 -172 47
-449 -34 -583 -170 -71 -73 -150 -231 -166 -334 -3 -16 -7 -41 -9 -54 -3 -14
0 -30 5 -36 6 -7 12 -49 15 -94 5 -92 12 -124 26 -116 5 4 10 -2 10 -12 4 -51
7 -65 18 -76 9 -9 11 -2 6 34 -25 186 3 317 99 466 37 56 100 113 112 100 3
-3 -10 -26 -30 -51 -35 -46 -52 -83 -43 -93 3 -2 17 15 31 39 51 87 127 130
261 148 103 15 95 15 200 2 74 -8 175 -45 161 -59 -7 -8 32 -38 74 -56 46 -20
89 -62 106 -103 8 -18 20 -37 27 -41 16 -9 41 -53 34 -59 -3 -3 -12 3 -21 12
-26 25 -32 8 -12 -34 42 -86 55 -158 52 -285 -4 -134 -7 -152 -38 -247 -51
-154 -110 -250 -234 -375 -131 -134 -200 -169 -346 -174 -16 -1 -28 -5 -28
-10 0 -5 11 -8 25 -6 15 1 24 -2 22 -8 -2 -7 -41 -12 -96 -13 -51 -1 -99 -5
-106 -8 -8 -3 -20 0 -27 7 -8 7 -45 14 -88 15 -158 5 -236 26 -285 78 -11 12
-65 45 -120 74 -279 145 -469 366 -555 645 -12 39 -31 95 -43 125 -13 35 -22
87 -24 144 -3 60 -9 94 -19 103 -12 12 -13 40 -10 146 3 73 8 146 11 162 33
168 82 303 147 403 92 141 287 318 411 371 23 10 67 30 98 44 83 39 199 75
318 99 87 17 141 21 301 21 234 0 313 -6 490 -38 74 -13 158 -27 185 -30 90
-12 162 -35 297 -92 73 -31 142 -56 152 -55 28 2 67 -21 161 -94 46 -35 85
-59 87 -53 2 6 26 -10 53 -35 67 -63 71 -48 5 19 -53 53 -61 78 -12 33 17 -16
13 -6 -13 30 -21 30 -54 64 -74 77 -41 26 -110 95 -95 95 6 0 25 -11 44 -25
36 -26 52 -26 30 1 -55 66 -278 218 -436 297 -163 82 -414 163 -562 182 -26 3
-74 10 -107 14 -72 10 -340 10 -410 1z m430 -65 c111 -11 104 -20 -13 -17
-240 8 -422 4 -474 -11 -63 -17 -118 -21 -118 -8 0 10 91 27 200 37 41 3 76 7
77 8 6 5 263 -2 328 -9z m308 -140 c121 -32 168 -50 262 -97 65 -34 64 -40 -3
-13 -34 14 -79 28 -99 31 -21 3 -72 13 -113 24 -92 23 -158 31 -275 35 -49 2
-124 7 -165 11 -91 8 -94 8 -200 -1 -47 -4 -110 -8 -140 -10 -180 -8 -599
-159 -745 -268 -24 -18 -56 -41 -71 -52 -16 -11 -44 -34 -64 -51 -40 -35 -100
-77 -100 -71 0 22 184 171 281 228 41 23 111 64 156 91 46 27 87 47 91 44 22
-13 271 62 265 81 -6 16 159 39 297 42 63 1 116 4 118 6 2 2 94 2 205 0 179
-3 213 -6 300 -30z m218 -21 c115 -49 236 -121 224 -132 -2 -2 -44 16 -92 40
-48 25 -127 60 -176 79 -53 21 -85 39 -83 46 3 6 0 14 -7 17 -7 2 -9 5 -5 5 5
1 67 -24 139 -55z m-1366 -64 c-28 -12 -37 -12 -30 0 3 6 16 10 28 9 21 0 21
-1 2 -9z m2627 -515 c-2 -88 -5 -177 -7 -197 -1 -21 -3 -60 -4 -88 0 -27 -5
-50 -10 -50 -9 0 -4 326 8 505 3 35 4 37 10 15 4 -14 6 -97 3 -185z m-3429
-132 c-11 -28 -86 -146 -107 -168 -18 -20 -18 -20 -6 5 16 32 111 180 116 180
2 0 0 -8 -3 -17z m70 -120 c-6 -64 -22 -95 -24 -47 -1 16 -1 36 0 44 2 15 22
60 27 60 1 0 0 -26 -3 -57z m1791 -77 c49 -15 98 -32 110 -38 45 -24 133 -87
169 -122 61 -60 42 -62 -24 -3 -35 32 -100 76 -153 102 -93 47 -151 60 -313
69 -81 5 -298 -49 -364 -90 -58 -36 -158 -133 -186 -181 -32 -56 -42 -49 -12
9 28 55 159 185 206 205 202 84 394 101 567 49z m-1999 -45 c-18 -36 -29 -42
-15 -8 6 12 13 31 17 42 4 11 8 14 10 8 2 -6 -3 -25 -12 -42z m69 -221 c-1 -8
-3 -24 -4 -35 l-1 -20 -8 20 c-4 11 -6 38 -3 60 5 35 6 37 12 15 4 -14 6 -32
4 -40z m-284 -30 c0 -5 -7 -34 -15 -65 -28 -108 -51 -297 -48 -400 3 -148 10
-290 17 -345 8 -65 55 -241 67 -255 5 -5 9 -19 9 -31 0 -39 41 -155 73 -207
17 -29 39 -74 49 -102 l16 -50 -28 33 c-15 18 -40 63 -55 100 -15 37 -34 81
-41 97 -20 45 -55 138 -60 155 -11 47 -24 90 -38 128 -16 42 -19 59 -33 192
-9 87 -9 282 1 400 7 88 50 332 62 352 7 11 24 10 24 -2z m360 -474 c0 -27 60
-201 96 -276 129 -272 368 -510 613 -612 147 -61 224 -90 246 -93 11 -1 47 -8
80 -15 69 -15 89 -18 128 -19 15 -1 27 -6 27 -12 0 -6 -15 -8 -42 -4 -24 3
-68 7 -98 10 -30 2 -62 5 -70 8 -75 20 -107 31 -120 41 -8 7 -27 13 -41 14
-82 5 -340 166 -472 295 -125 122 -192 215 -268 370 -35 71 -92 228 -104 285
-3 12 -7 32 -10 44 l-4 21 19 -21 c11 -12 20 -28 20 -36z m3261 -191 c1 -11 1
-31 0 -45 -2 -23 -3 -24 -11 -5 -12 28 -12 91 0 79 5 -5 10 -18 11 -29z
m-1165 -217 c-4 -13 -9 -36 -12 -53 -3 -16 -20 -46 -37 -67 -18 -20 -48 -56
-68 -80 -20 -24 -46 -44 -57 -45 -17 -1 -14 5 19 40 41 43 93 122 125 190 19
40 40 51 30 15z m-31 -164 c-16 -24 -36 -49 -97 -115 -10 -10 -18 -23 -18 -27
0 -10 -71 -77 -129 -121 -37 -29 -170 -86 -178 -77 -8 8 36 45 67 56 19 8 53
26 75 41 61 41 220 189 256 237 34 46 53 50 24 6z m-188 -128 c-19 -29 -77
-74 -167 -129 -14 -8 -44 -18 -67 -21 -43 -5 -94 -27 -123 -51 -8 -7 -32 -18
-52 -24 -34 -11 -69 -13 -255 -11 -36 1 -75 8 -90 16 -26 14 -22 15 67 10 52
-4 109 -8 125 -10 17 -3 46 -1 65 4 19 5 57 11 83 13 54 5 75 17 31 17 l-29 1
25 13 c14 7 50 19 80 26 65 15 140 51 191 91 20 16 41 29 45 29 5 0 25 14 44
30 46 39 54 38 27 -4z m-1087 -18 c0 -13 -23 -5 -28 10 -2 7 2 10 12 6 9 -3
16 -11 16 -16z m2209 -109 c-24 -46 -45 -86 -49 -89 -4 -3 -17 -27 -30 -55
-29 -62 -103 -161 -108 -146 -2 6 13 34 34 62 20 28 47 69 59 92 44 83 125
249 126 260 1 7 4 0 6 -14 3 -16 -11 -56 -38 -110z m-2761 -456 c44 -44 107
-93 119 -93 4 0 19 -10 33 -21 36 -29 198 -142 224 -156 20 -10 40 -20 156
-71 83 -37 120 -51 120 -46 0 2 18 -5 39 -16 50 -25 175 -56 314 -77 98 -15
434 -8 529 10 166 33 370 101 483 162 95 51 144 80 200 119 88 61 89 62 69 31
-40 -62 -303 -206 -482 -265 -100 -32 -237 -65 -317 -75 -27 -4 -61 -8 -75
-11 -35 -6 -323 -6 -341 0 -7 3 -36 7 -64 10 -79 9 -198 34 -246 51 -24 9 -83
27 -132 40 -48 14 -106 34 -130 46 -76 39 -202 112 -222 129 -11 10 -36 26
-55 35 -75 38 -298 235 -265 235 2 0 21 -17 43 -37z"/>
</g>
</svg>
