<svg width="39" height="39" viewBox="0 0 39 39" fill="none" xmlns="http://www.w3.org/2000/svg">
<path d="M12.1875 20.7188H26.8125" stroke="#00859B" stroke-width="2" stroke-linecap="round" stroke-linejoin="round"/>
<path d="M7.3125 14.625V10.9688C7.3125 9.67582 7.82611 8.43584 8.74035 7.5216C9.65459 6.60736 10.8946 6.09375 12.1875 6.09375H26.8125C28.1054 6.09375 29.3454 6.60736 30.2596 7.5216C31.1739 8.43584 31.6875 9.67582 31.6875 10.9688V14.625" stroke="#00859B" stroke-width="2" stroke-linecap="round" stroke-linejoin="round"/>
<path d="M12.1875 25.5938V19.5C12.1875 18.5358 11.9016 17.5933 11.3659 16.7916C10.8302 15.9899 10.0689 15.3651 9.17808 14.9961C8.28729 14.6271 7.30709 14.5306 6.36144 14.7187C5.41578 14.9068 4.54714 15.3711 3.86536 16.0529C3.18358 16.7346 2.71928 17.6033 2.53117 18.5489C2.34307 19.4946 2.43961 20.4748 2.80859 21.3656C3.17757 22.2564 3.80241 23.0177 4.6041 23.5534C5.40579 24.0891 6.34832 24.375 7.3125 24.375V30.4688C7.3125 30.792 7.44091 31.102 7.66947 31.3305C7.89803 31.5591 8.20802 31.6875 8.53125 31.6875H30.4688C30.792 31.6875 31.102 31.5591 31.3305 31.3305C31.5591 31.102 31.6875 30.792 31.6875 30.4688V24.375C32.6517 24.375 33.5942 24.0891 34.3959 23.5534C35.1976 23.0177 35.8224 22.2564 36.1914 21.3656C36.5604 20.4748 36.6569 19.4946 36.4688 18.5489C36.2807 17.6033 35.8164 16.7346 35.1346 16.0529C34.4529 15.3711 33.5842 14.9068 32.6386 14.7187C31.6929 14.5306 30.7127 14.6271 29.8219 14.9961C28.9311 15.3651 28.1698 15.9899 27.6341 16.7916C27.0984 17.5933 26.8125 18.5358 26.8125 19.5V25.5938" stroke="#00859B" stroke-width="2" stroke-linecap="round" stroke-linejoin="round"/>
</svg>
