<svg width="26" height="24" viewBox="0 0 26 24" fill="none" xmlns="http://www.w3.org/2000/svg">
<path d="M13 21.625L12.5725 22.3885L13 22.6279L13.4275 22.3885L13 21.625ZM13 21.625C13.4275 22.3885 13.4278 22.3883 13.428 22.3882L13.4288 22.3877L13.4311 22.3865L13.4386 22.3822L13.4652 22.3671C13.4881 22.354 13.521 22.3351 13.5633 22.3104C13.648 22.2611 13.7703 22.1888 13.9249 22.0948C14.2339 21.9067 14.6725 21.6312 15.1977 21.2776C16.2463 20.5715 17.6482 19.5485 19.0541 18.2832C21.813 15.8002 24.8125 12.184 24.8125 8.06251V8.06236C24.8122 6.54562 24.2867 5.07577 23.3252 3.90273C22.3637 2.72969 21.0256 1.92586 19.5384 1.6279C18.0512 1.32994 16.5067 1.55625 15.1675 2.26835C14.3119 2.72331 13.5739 3.3586 13 4.12308C12.4261 3.3586 11.6881 2.7233 10.8325 2.26835C9.49327 1.55625 7.94879 1.32994 6.4616 1.6279C4.97441 1.92586 3.63631 2.72969 2.67481 3.90273C1.71331 5.07577 1.18776 6.54562 1.1875 8.06236V8.06251C1.1875 12.184 4.18704 15.8002 6.94591 18.2832C8.35181 19.5485 9.75372 20.5715 10.8023 21.2776C11.3275 21.6312 11.7661 21.9067 12.0751 22.0948C12.2297 22.1888 12.352 22.2611 12.4367 22.3104C12.479 22.3351 12.5119 22.354 12.5348 22.3671L12.5614 22.3822L12.5689 22.3865L12.5712 22.3877L12.572 22.3882C12.5722 22.3883 12.5725 22.3885 13 21.625Z" fill="#00859B" stroke="#00859B" stroke-width="1.75" stroke-linecap="round"/>
</svg>
