<svg width="57" height="172" viewBox="0 0 57 172" fill="none" xmlns="http://www.w3.org/2000/svg">
<path d="M47.0281 172C39.1583 172 33.1291 169.488 28.9404 164.463C24.7516 159.567 22.6573 152.932 22.6573 144.557V109.578C22.6573 103.78 21.8322 99.3348 20.1821 96.2427C18.6589 93.0217 16.1838 90.7026 12.7566 89.2854C9.45639 87.7393 5.20419 86.9019 0 86.773V84.8404C5.20419 84.5828 9.45639 83.8097 12.7566 82.5213C16.1838 81.233 18.6589 79.0427 20.1821 75.9506C21.8322 72.7296 22.6573 68.3491 22.6573 62.809V27.2494C22.6573 18.6172 24.7516 11.9176 28.9404 7.15056C33.1291 2.38352 39.1583 0 47.0281 0H56.5479V1.93258H51.2168C45.5049 1.93258 41.3796 3.80075 38.841 7.53708C36.4293 11.1446 35.2235 16.7491 35.2235 24.3506V61.4562C35.2235 65.7079 34.3984 69.573 32.7483 73.0517C31.2251 76.5303 28.8769 79.3648 25.7036 81.555C22.5303 83.6165 18.4051 84.9693 13.3278 85.6135V85.8067C18.4051 86.4509 22.5303 87.8682 25.7036 90.0584C28.8769 92.2487 31.2251 95.0187 32.7483 98.3685C34.3984 101.718 35.2235 105.648 35.2235 110.157V147.649C35.2235 155.251 36.4293 160.855 38.841 164.463C41.2527 168.199 45.2511 170.067 50.836 170.067H56.5479V172H47.0281Z" fill="#DC6B2F"/>
</svg>
