<svg width="25" height="27" viewBox="0 0 25 27" fill="none" xmlns="http://www.w3.org/2000/svg">
<path d="M12.5018 24.2986C19.0181 24.2986 24.3005 19.0161 24.3005 12.4999C24.3005 5.98363 19.0181 0.701172 12.5018 0.701172C5.98558 0.701172 0.703125 5.98363 0.703125 12.4999C0.703125 19.0161 5.98558 24.2986 12.5018 24.2986Z" fill="#DC6B2F"/>
<path d="M17.9375 24.9206V17.9375L12.5 6.15625L7.0625 17.9375V24.9209" stroke="#F9F5F1" stroke-width="1.8125" stroke-linecap="round" stroke-linejoin="round"/>
<path d="M12.5 19.75C12.5 19.0289 12.7864 18.3374 13.2963 17.8276C13.8062 17.3177 14.4977 17.0313 15.2188 17.0312C15.9398 17.0313 16.6313 17.3177 17.1412 17.8276C17.6511 18.3374 17.9375 19.0289 17.9375 19.75" stroke="#F9F5F1" stroke-width="1.8125" stroke-linecap="round" stroke-linejoin="round"/>
<path d="M12.5 25.375V19.75C12.5 19.0289 12.2136 18.3374 11.7037 17.8276C11.1938 17.3177 10.5023 17.0313 9.78125 17.0312C9.06019 17.0313 8.36867 17.3177 7.8588 17.8276C7.34894 18.3374 7.0625 19.0289 7.0625 19.75" stroke="#F9F5F1" stroke-width="1.8125" stroke-linecap="round" stroke-linejoin="round"/>
<path d="M9.57031 12.5H15.4261" stroke="#F9F5F1" stroke-width="1.8125" stroke-linecap="round" stroke-linejoin="round"/>
</svg>
