<svg width="39" height="39" viewBox="0 0 39 39" fill="none" xmlns="http://www.w3.org/2000/svg">
<path d="M13.4062 24.375C17.7814 24.375 21.3281 20.8283 21.3281 16.4531C21.3281 12.078 17.7814 8.53125 13.4062 8.53125C9.03112 8.53125 5.48438 12.078 5.48438 16.4531C5.48438 20.8283 9.03112 24.375 13.4062 24.375Z" stroke="#00859B" stroke-width="2" stroke-miterlimit="10"/>
<path d="M23.6758 8.8262C24.7654 8.51921 25.9081 8.44927 27.027 8.62111C28.1459 8.79294 29.215 9.20255 30.1622 9.82235C31.1095 10.4421 31.913 11.2577 32.5185 12.2142C33.124 13.1707 33.5175 14.2458 33.6725 15.3671C33.8275 16.4885 33.7405 17.63 33.4171 18.7149C33.0938 19.7997 32.5418 20.8027 31.7982 21.6563C31.0546 22.5098 30.1368 23.1941 29.1065 23.6631C28.0761 24.132 26.9573 24.3747 25.8253 24.3749" stroke="#00859B" stroke-width="2" stroke-linecap="round" stroke-linejoin="round"/>
<path d="M2.4375 30.0722C3.67474 28.3123 5.31724 26.8759 7.22635 25.8843C9.13546 24.8928 11.2551 24.3751 13.4064 24.375C15.5576 24.3749 17.6773 24.8924 19.5865 25.8839C21.4957 26.8753 23.1383 28.3115 24.3757 30.0713" stroke="#00859B" stroke-width="2" stroke-linecap="round" stroke-linejoin="round"/>
<path d="M25.8281 24.375C27.9796 24.3734 30.0997 24.8903 32.0091 25.8819C33.9184 26.8734 35.5607 28.3105 36.7969 30.0713" stroke="#00859B" stroke-width="2" stroke-linecap="round" stroke-linejoin="round"/>
</svg>
