<svg width="39" height="39" viewBox="0 0 39 39" fill="none" xmlns="http://www.w3.org/2000/svg">
<path d="M6.09375 9.75V29.25C6.09375 29.8965 6.35056 30.5165 6.80768 30.9736C7.2648 31.4307 7.88478 31.6875 8.53125 31.6875H32.9062C33.2295 31.6875 33.5395 31.5591 33.768 31.3305C33.9966 31.102 34.125 30.792 34.125 30.4688V13.4062C34.125 13.083 33.9966 12.773 33.768 12.5445C33.5395 12.3159 33.2295 12.1875 32.9062 12.1875H8.53125C7.88478 12.1875 7.2648 11.9307 6.80768 11.4736C6.35056 11.0165 6.09375 10.3965 6.09375 9.75ZM6.09375 9.75C6.09375 9.10353 6.35056 8.48355 6.80768 8.02643C7.2648 7.56931 7.88478 7.3125 8.53125 7.3125H29.25" stroke="#00859B" stroke-width="2" stroke-linecap="round" stroke-linejoin="round"/>
<path d="M27.3375 23.4123C28.1452 23.4123 28.8 22.7575 28.8 21.9498C28.8 21.1421 28.1452 20.4873 27.3375 20.4873C26.5298 20.4873 25.875 21.1421 25.875 21.9498C25.875 22.7575 26.5298 23.4123 27.3375 23.4123Z" fill="#00859B"/>
</svg>
