<svg width="44" height="44" viewBox="0 0 44 44" fill="none" xmlns="http://www.w3.org/2000/svg">
<circle cx="22" cy="22" r="21.5" stroke="#00859B"/>
<path fill-rule="evenodd" clip-rule="evenodd" d="M17 12H27C29.7614 12 32 14.2386 32 17V27C32 29.7614 29.7614 32 27 32H17C14.2386 32 12 29.7614 12 27V17C12 14.2386 14.2386 12 17 12ZM25.5935 23.7993C25.981 23.0525 26.1231 22.2025 25.9997 21.3703C25.8738 20.5214 25.4782 19.7355 24.8714 19.1286C24.2646 18.5218 23.4786 18.1262 22.6297 18.0003C21.7975 17.8769 20.9475 18.019 20.2007 18.4065C19.4539 18.794 18.8483 19.4072 18.47 20.1587C18.0918 20.9102 17.9601 21.7619 18.0938 22.5925C18.2274 23.4232 18.6196 24.1905 19.2145 24.7855C19.8095 25.3804 20.5768 25.7726 21.4075 25.9062C22.2382 26.0399 23.0898 25.9082 23.8413 25.53C24.5929 25.1517 25.206 24.5461 25.5935 23.7993Z" fill="#DC6B2F"/>
<path fill-rule="evenodd" clip-rule="evenodd" d="M26.5 16.5C26.5 15.9477 26.9477 15.5 27.5 15.5H27.51C28.0623 15.5 28.51 15.9477 28.51 16.5C28.51 17.0523 28.0623 17.5 27.51 17.5H27.5C26.9477 17.5 26.5 17.0523 26.5 16.5Z" fill="white"/>
</svg>
