<svg width="45" height="44" viewBox="0 0 45 44" fill="none" xmlns="http://www.w3.org/2000/svg">
<circle cx="22.1582" cy="22" r="21.5" stroke="#00859B"/>
<path d="M27.4175 30.3712C27.3567 30.5228 27.2642 30.6597 27.1461 30.7726C27.0281 30.8856 26.8873 30.972 26.7331 31.0261C26.579 31.0801 26.415 31.1006 26.2523 31.0862C26.0896 31.0717 25.9318 31.0226 25.7896 30.9422L21.3793 27.5153L18.5487 30.1267C18.483 30.1753 18.4062 30.2065 18.3253 30.2175C18.2444 30.2286 18.162 30.2191 18.0857 30.19L18.6283 25.3349L18.6457 25.3487L18.6568 25.2528C18.6568 25.2528 26.593 18.0273 26.9163 17.7195C27.2437 17.4124 27.1357 17.3458 27.1357 17.3458C27.1543 16.9713 26.5483 17.3458 26.5483 17.3458L16.033 24.1108L11.6538 22.6194C11.6538 22.6194 10.9813 22.3781 10.9179 21.8477C10.8513 21.3213 11.6758 21.0354 11.6758 21.0354L29.0868 14.1186C29.0868 14.1186 30.518 13.4809 30.518 14.5369L27.4175 30.3712Z" fill="#DC6B2F"/>
</svg>
