<svg width="44" height="44" viewBox="0 0 44 44" fill="none" xmlns="http://www.w3.org/2000/svg">
<circle cx="22" cy="22" r="21.5" stroke="#00859B"/>
<path d="M31.5373 28.9372H29.1681C28.2712 28.9372 28.0004 28.2095 26.3928 26.6019C24.9881 25.2481 24.3958 25.0788 24.0404 25.0788C23.5497 25.0788 23.4142 25.2141 23.4142 25.8911V28.0234C23.4142 28.5988 23.2281 28.9372 21.722 28.9372C20.2605 28.839 18.8432 28.3951 17.5869 27.6418C16.3305 26.8886 15.2711 25.8477 14.4958 24.6049C12.6553 22.3141 11.3747 19.6254 10.7559 16.7526C10.7559 16.3972 10.8912 16.0757 11.5682 16.0757H13.9374C14.5466 16.0757 14.7666 16.3465 15.0035 16.9727C16.1542 20.3572 18.1174 23.3019 18.9127 23.3019C19.2174 23.3019 19.3527 23.1665 19.3527 22.405V18.9188C19.2512 17.328 18.4051 17.1926 18.4051 16.6173C18.4162 16.4655 18.4861 16.324 18.5998 16.2229C18.7136 16.1218 18.8622 16.069 19.0143 16.0757H22.7374C23.2451 16.0757 23.4142 16.3295 23.4142 16.9388V21.6434C23.4142 22.1511 23.6343 22.3203 23.7866 22.3203C24.0912 22.3203 24.3281 22.1511 24.8866 21.5927C26.0866 20.1292 27.0672 18.4987 27.7974 16.7526C27.8719 16.5425 28.0131 16.3626 28.1996 16.2404C28.386 16.1181 28.6073 16.0603 28.8297 16.0757H31.1989C31.9097 16.0757 32.062 16.4311 31.9097 16.9388C31.0476 18.8693 29.981 20.7019 28.7282 22.405C28.4743 22.7942 28.3728 22.9972 28.7282 23.4542C28.9651 23.8096 29.7943 24.5034 30.3528 25.1634C31.1651 25.9736 31.8396 26.9111 32.3496 27.9388C32.5527 28.5988 32.2143 28.9372 31.5373 28.9372Z" fill="#DC6B2F"/>
</svg>
