<svg width="45" height="44" viewBox="0 0 45 44" fill="none" xmlns="http://www.w3.org/2000/svg">
<g clip-path="url(#clip0_539_4926)">
<path d="M3.63211 32.9331L3.68813 32.7332L3.58604 32.5524C1.77283 29.341 0.816581 25.7019 0.816581 22C0.816581 10.1455 10.4621 0.5 22.3166 0.5C34.171 0.5 43.8166 10.1455 43.8166 22C43.8166 33.8545 34.171 43.5 22.3166 43.5C18.7738 43.5 15.2716 42.6188 12.1621 40.9496L11.9924 40.8585L11.8054 40.9048L1.38597 43.4858C1.38542 43.486 1.38487 43.4861 1.38432 43.4862C1.34461 43.4957 1.30677 43.5 1.2731 43.5C1.1516 43.5 1.03213 43.4508 0.944581 43.3605L0.944041 43.36C0.832054 43.2448 0.789357 43.0784 0.833574 42.9204L3.63211 32.9331Z" stroke="#00859B"/>
<path d="M27.1134 30.9567C26.4701 30.9567 25.8443 30.8629 25.2557 30.6773C24.5691 30.4619 23.7474 30.1928 22.6804 29.7371C18.9526 28.1485 16.2516 24.8742 14.9742 23.065L14.9052 22.9681C14.3278 22.2062 13 20.2289 13 18.1588C13 15.9567 14.1165 14.7815 14.5938 14.2804L14.6753 14.1938C15.2557 13.567 15.9289 13.5 16.1907 13.5C16.4949 13.5 17.1825 13.5165 17.1825 13.5165C17.599 13.5165 18.0763 13.6392 18.4567 14.5433L18.9619 15.7536C19.2938 16.5526 19.7474 17.6454 19.8134 17.7784C19.8897 17.9289 20.1289 18.399 19.8495 18.9485L19.7876 19.0732C19.6722 19.3093 19.5712 19.5124 19.3454 19.7732L19.1258 20.033C18.9619 20.2299 18.7969 20.4268 18.6526 20.568C18.4454 20.7722 18.4474 20.7742 18.5299 20.9155C18.7681 21.3206 19.6443 22.7299 20.9124 23.8464C22.2763 25.0474 23.4433 25.5485 24.0701 25.8186C24.2031 25.8753 24.3103 25.9217 24.3897 25.9608C24.5547 26.0423 24.6382 26.0547 24.6732 26.0547C24.6928 26.0547 24.7279 26.0547 24.8165 25.9557C25.0846 25.6505 25.9134 24.6877 26.1876 24.2815C26.4258 23.9289 26.7268 23.7495 27.0835 23.7495C27.3052 23.7495 27.5144 23.8186 27.7103 23.8887C28.165 24.0516 30.4815 25.1815 30.7959 25.3371L31.0351 25.4526C31.3928 25.6237 31.6742 25.7578 31.833 26.0196C32.0701 26.4052 31.9732 27.4907 31.6134 28.4897C31.166 29.7248 29.1845 30.732 28.2546 30.8691C27.8485 30.9279 27.4753 30.9567 27.1134 30.9567Z" fill="#DC6B2F"/>
</g>
<defs>
<clipPath id="clip0_539_4926">
<rect width="44.0002" height="44" fill="white" transform="translate(0.316406)"/>
</clipPath>
</defs>
</svg>
