<svg width="32" height="32" viewBox="0 0 32 32" fill="none" xmlns="http://www.w3.org/2000/svg">
<path d="M18 28H14" stroke="#DC6B2F" stroke-width="2" stroke-linecap="round" stroke-linejoin="round"/>
<path d="M15.3704 2.47029C12.9964 4.37205 5.05591 11.9714 11.9991 23.9999H19.9991C26.798 11.9799 18.9736 4.38281 16.6245 2.47433C16.4474 2.33039 16.2264 2.25147 15.9982 2.25074C15.77 2.25 15.5484 2.32749 15.3704 2.47029V2.47029Z" stroke="#DC6B2F" stroke-width="2" stroke-linecap="round" stroke-linejoin="round"/>
<path d="M9.23258 13.9199L5.31381 18.6224C5.21593 18.7399 5.14628 18.8783 5.11023 19.0268C5.07418 19.1754 5.07268 19.3303 5.10584 19.4796L6.65121 26.4337C6.68805 26.5995 6.76649 26.7531 6.87915 26.8802C6.99181 27.0073 7.13497 27.1035 7.29514 27.16C7.45531 27.2164 7.62721 27.2311 7.79463 27.2027C7.96205 27.1743 8.11949 27.1037 8.25209 26.9976L11.9993 23.9999" stroke="#DC6B2F" stroke-width="2" stroke-linecap="round" stroke-linejoin="round"/>
<path d="M22.6914 13.8296L26.6854 18.6224C26.7833 18.7399 26.853 18.8782 26.889 19.0268C26.9251 19.1754 26.9266 19.3303 26.8934 19.4795L25.348 26.4337C25.3112 26.5994 25.2328 26.7531 25.1201 26.8802C25.0074 27.0072 24.8643 27.1035 24.7041 27.1599C24.5439 27.2163 24.372 27.2311 24.2046 27.2027C24.0372 27.1743 23.8798 27.1037 23.7472 26.9976L20 23.9999" stroke="#DC6B2F" stroke-width="2" stroke-linecap="round" stroke-linejoin="round"/>
<path d="M16 13.5C16.8284 13.5 17.5 12.8284 17.5 12C17.5 11.1716 16.8284 10.5 16 10.5C15.1716 10.5 14.5 11.1716 14.5 12C14.5 12.8284 15.1716 13.5 16 13.5Z" fill="#DC6B2F"/>
</svg>
