<svg width="32" height="32" viewBox="0 0 32 32" fill="none" xmlns="http://www.w3.org/2000/svg">
<path d="M16 25C18 25 21.307 24.9775 25.1112 22.7811C28.9154 20.5847 30.1465 17.8333 30.5404 16.4247C30.5758 16.2973 30.5854 16.1642 30.5687 16.0331C30.5521 15.902 30.5095 15.7756 30.4434 15.6611C30.3773 15.5467 30.2891 15.4465 30.1839 15.3665C30.0787 15.2866 29.9586 15.2283 29.8306 15.1953C28.9079 14.9588 27.3145 14.745 25.2645 15.2313" stroke="#DC6B2F" stroke-width="2" stroke-linecap="round" stroke-linejoin="round"/>
<path d="M6.73574 15.2312C4.6859 14.745 3.09254 14.9588 2.16986 15.1953C2.04191 15.2283 1.92182 15.2866 1.81661 15.3665C1.71141 15.4465 1.62319 15.5467 1.55711 15.6611C1.49103 15.7755 1.44842 15.902 1.43176 16.0331C1.4151 16.1642 1.42474 16.2973 1.46009 16.4247C1.85401 17.8333 3.08506 20.5847 6.88929 22.7811C10.6935 24.9775 14.0005 25 16.0005 25" stroke="#DC6B2F" stroke-width="2" stroke-linecap="round" stroke-linejoin="round"/>
<path d="M16 25C16 25 21 22.2727 21 15C21 9.30196 17.9308 6.39411 16.6017 5.40203C16.428 5.27204 16.2169 5.20178 16 5.20178C15.7831 5.20178 15.572 5.27204 15.3983 5.40203C14.0692 6.39411 11 9.30196 11 15C11 22.2727 16 25 16 25Z" stroke="#DC6B2F" stroke-width="2" stroke-linecap="round" stroke-linejoin="round"/>
<path d="M16 25C17.4988 24.6812 21.5413 22.4023 23.9641 18.2058C26.387 14.0093 25.7902 10.6584 25.3169 9.20099C25.2407 8.96583 25.0801 8.76726 24.866 8.64367C24.6519 8.52007 24.3996 8.48023 24.1579 8.53185C22.7247 8.85677 21.3843 9.50375 20.2383 10.4237" stroke="#DC6B2F" stroke-width="2" stroke-linecap="round" stroke-linejoin="round"/>
<path d="M11.7615 10.4237C10.6156 9.50373 9.27522 8.85676 7.84205 8.53185C7.60031 8.48023 7.34802 8.52007 7.13395 8.64367C6.91988 8.76726 6.75923 8.96583 6.68307 9.20099C6.20975 10.6584 5.61299 14.0093 8.03584 18.2058C10.4587 22.4023 14.5012 24.6812 15.9999 25" stroke="#DC6B2F" stroke-width="2" stroke-linecap="round" stroke-linejoin="round"/>
</svg>
