<svg width="32" height="32" viewBox="0 0 32 32" fill="none" xmlns="http://www.w3.org/2000/svg">
<path d="M2.66797 10.9999C2.66797 12.768 3.37035 14.4637 4.62059 15.714C5.87083 16.9642 7.56653 17.6666 9.33464 17.6666C11.7982 17.7584 14.154 18.7007 16.0013 20.3333C17.8486 18.7007 20.2044 17.7584 22.668 17.6666C24.4361 17.6666 26.1318 16.9642 27.382 15.714C28.6323 14.4637 29.3346 12.768 29.3346 10.9999V4.33325H22.668C20.2044 4.42502 17.8486 5.36733 16.0013 6.99992C14.154 5.36733 11.7982 4.42502 9.33464 4.33325H2.66797V10.9999Z" stroke="#DC6B2F" stroke-width="2" stroke-linecap="round" stroke-linejoin="round"/>
<path d="M8 9.66675C10 9.66675 12 10.3334 12 12.3334C9.33333 12.3334 8 12.3334 8 9.66675Z" fill="#DC6B2F" stroke="#DC6B2F" stroke-width="2" stroke-linecap="round" stroke-linejoin="round"/>
<path d="M24 9.66675C22 9.66675 20 10.3334 20 12.3334C22.6667 12.3334 24 12.3334 24 9.66675Z" fill="#DC6B2F" stroke="#DC6B2F" stroke-width="2" stroke-linecap="round" stroke-linejoin="round"/>
<path d="M29.3301 4.3457V28.5" stroke="#DC6B2F" stroke-width="2"/>
</svg>
