<svg
	height="100%"
	width="100%"
	viewBox="0 0 1744 1082"
	fill="none"
	xmlns="http://www.w3.org/2000/svg"
	preserveAspectRatio="xMidYMid slice"
>
	<rect x="574"
		  width="195"
		  height="768"
		  fill="rgba(255,255,255,1)"
	/>
	<rect x="769"
		  y="192"
		  width="195"
		  height="576"
		  fill="rgba(255,255,255,1)"/>
	<rect x="964"
		  y="192"
		  width="195"
		  height="888"
		  fill="rgba(255,255,255, 1)"/>
	<rect x="1159"
		  y="192"
		  width="195"
		  height="766"
		  fill="rgba(255,255,255, 1)"/>
	<rect x="1354"
		  y="384"
		  width="195"
		  height="384"
		  fill="rgba(255,255,255, 1)"/>
	<rect x="1354"
		  y="768"
		  width="195"
		  height="190"
		  fill="rgba(255,255,255, 0.8)"/>
	<rect x="1549"
		  y="576"
		  width="195"
		  height="192"
		  fill="rgba(255,255,255, 0.8)"
	/>
	<rect x="379"
		  y="578"
		  width="195"
		  height="190"
		  fill="rgba(255,255,255,0.9)"
	/>
	<rect x="184"
		  y="578"
		  width="195"
		  height="190"
		  fill="rgba(255,255,255, 0.7)"
	/>
	<rect x="769"
		  width="195"
		  height="192"
		  fill="rgba(255,255,255, 0.9)"
	/>
	<rect x="379"
		  y="960"
		  width="390"
		  height="120"
		  fill="rgba(255,255,255, 0.9)"/>
	<rect x="1549"
		  y="384"
		  width="195"
		  height="192"
		  fill="rgba(255,255,255, 0.9)"/>
	<rect x="184"
		  y="386"
		  width="195"
		  height="192"
		  fill="rgba(255,255,255, 0.9)"/>
	<rect x="1354"
		  y="192"
		  width="195"
		  height="192"
		  fill="rgba(255,255,255, 0.9)"/>
	<rect x="964"
		  width="195"
		  height="192"
		  fill="rgba(255,255,255, 0.7)"
	/>
	<rect x="379"
		  y="192"
		  width="195"
		  height="386"
		  fill="rgba(255,255,255, 0.5)"
	/>
	<rect x="382"
		  width="195"
		  height="192"
		  fill="rgba(255,255,255, 0.7)"
	/>
	<rect x="1549"
		  y="192"
		  width="195"
		  height="192"
		  fill="rgba(255,255,255, 0.7)"/>
	<rect x="1549"
		  y="768"
		  width="195"
		  height="192"
		  fill="rgba(255,255,255, 0.7)"/>
	<rect x="1159"
		  width="195"
		  height="192"
		  fill="rgba(255,255,255, 0.6)"
	/>
	<rect x="1354"
		  width="195"
		  height="192"
		  fill="rgba(255,255,255, 0.3)"/>
	<rect x="769"
		  y="768"
		  width="195"
		  height="192"
		  fill="rgba(255,255,255, 0.8)"
	/>
	<rect x="574"
		  y="768"
		  width="195"
		  height="192"
		  fill="rgba(255,255,255, 0.7)"
	/>
	<rect x="379"
		  y="768"
		  width="195"
		  height="192"
		  fill="rgba(255,255,255, 0.6)"
	/>
	<rect y="768"
		  width="379"
		  height="192"
		  fill="rgba(255,255,255, 0.6)"/>
	<rect x="1354"
		  y="958"
		  width="195"
		  height="122"
		  fill="rgba(255,255,255, 0.7)"
	/>
	<rect x="1159"
		  y="955"
		  width="195"
		  height="125"
		  fill="rgba(255,255,255, 0.9)"
	/>
	<rect x="184"
		  y="960"
		  width="195"
		  height="120"
		  fill="rgba(255,255,255, 0.7)"
	/>
	<rect x="769"
		  y="960"
		  width="195"
		  height="122"
		  fill="rgba(255,255,255, 0.6)"
	/>
</svg>
