<svg width="40" height="20" viewBox="0 0 40 20" fill="none" xmlns="http://www.w3.org/2000/svg">
	<path
		d="M3.71429 12H6.71429M6.71429 12C8.37114 12 9.71429 13.3431 9.71429 15C9.71429 16.6569 8.37114 18 6.71429 18H2M6.71429 12C8.37114 12 9.71429 10.6569 9.71429 9C9.71429 7.34314 8.37114 6 6.71429 6H2"
		stroke="#00859B" stroke-width="2.2" stroke-linecap="round" stroke-linejoin="round"/>
	<path
		d="M20.8571 6H19.1429C16.3025 6 14 8.30254 14 11.1429V14.5714M14 14.5714C14 16.465 15.535 18 17.4286 18H18.2857C20.1793 18 21.7143 16.465 21.7143 14.5714V13.7143C21.7143 11.8207 20.1793 10.2857 18.2857 10.2857H17.4286C15.535 10.2857 14 11.8207 14 13.7143V14.5714Z"
		stroke="#00859B" stroke-width="2.2" stroke-linecap="round" stroke-linejoin="round"/>
	<path
		d="M26 12V9.42857C26 7.53502 27.535 6 29.4286 6H30.2857C32.1793 6 33.7143 7.53502 33.7143 9.42857V12V14.5714C33.7143 16.465 32.1793 18 30.2857 18H29.4286C27.535 18 26 16.465 26 14.5714V12Z"
		stroke="#00859B" stroke-width="2.2" stroke-linecap="round" stroke-linejoin="round"/>
	<path
		d="M39.5 2.5C39.5 3.60457 38.6046 4.5 37.5 4.5C36.3954 4.5 35.5 3.60457 35.5 2.5C35.5 1.39543 36.3954 0.5 37.5 0.5C38.6046 0.5 39.5 1.39543 39.5 2.5Z"
		stroke="#00859B" stroke-width="1"/>
</svg>
