<svg width="24" height="21" viewBox="0 0 24 21" fill="none" xmlns="http://www.w3.org/2000/svg">
<path d="M11.9375 20.25C11.9375 20.25 1 14.125 1 6.68751C1.00022 5.37297 1.45571 4.09908 2.28903 3.08242C3.12235 2.06576 4.28206 1.36909 5.57099 1.11085C6.85991 0.852614 8.1985 1.04875 9.35915 1.66592C10.5198 2.28309 11.4309 3.28318 11.9375 4.49618C12.4441 3.28318 13.3552 2.28309 14.5158 1.66592C15.6765 1.04876 17.0151 0.852615 18.304 1.11085C19.5929 1.36909 20.7526 2.06576 21.586 3.08242C22.4193 4.09907 22.8748 5.37297 22.875 6.68751C22.875 14.125 11.9375 20.25 11.9375 20.25Z" fill="#DC6B2F" stroke="#DC6B2F" stroke-width="1.5" stroke-linecap="round" stroke-linejoin="round"/>
</svg>
