<svg width="22" height="22" viewBox="0 0 22 22" fill="none" xmlns="http://www.w3.org/2000/svg">
<path fill-rule="evenodd" clip-rule="evenodd" d="M15.3825 5.32668C15.9046 6.99616 15.8342 8.7947 15.1833 10.4183L21.6393 16.8744V21.0964H17.4174V18.5632H14.8842V16.03H12.351L10.9612 14.6402C9.33762 15.2911 7.53915 15.3616 5.86967 14.8396C4.20018 14.3175 2.76216 13.235 1.79866 11.7751C0.835157 10.3152 0.405282 8.56736 0.581694 6.82707C0.758105 5.08678 1.52998 3.46078 2.76686 2.2239C4.00373 0.987025 5.62973 0.215143 7.37002 0.0387266C9.11031 -0.13769 10.8581 0.292182 12.3181 1.25568C13.778 2.21918 14.8605 3.6572 15.3825 5.32668ZM4.74451 6.03352C4.74451 7.04752 5.56653 7.86954 6.58054 7.86954C7.59454 7.86954 8.41656 7.04752 8.41656 6.03352C8.41656 5.01951 7.59454 4.19749 6.58054 4.19749C5.56653 4.19749 4.74451 5.01951 4.74451 6.03352Z" fill="#DC6B2F"/>
</svg>
