<svg width="20" height="20" viewBox="0 0 20 20" fill="none" xmlns="http://www.w3.org/2000/svg">
<path d="M15.9431 19.6714C15.086 19.6714 13.8819 19.3614 12.079 18.3541C9.88654 17.1246 8.19072 15.9895 6.01014 13.8147C3.90771 11.7136 2.8846 10.3532 1.45268 7.74757C-0.164975 4.80558 0.110782 3.26345 0.419032 2.60435C0.786123 1.8166 1.32798 1.34544 2.02835 0.8778C2.42615 0.617163 2.84713 0.39374 3.28594 0.210362C3.32985 0.191481 3.37069 0.173478 3.40713 0.157231C3.62449 0.0593107 3.95382 -0.0886672 4.37096 0.0694101C4.64936 0.173917 4.89789 0.38776 5.28693 0.771976C6.08479 1.55885 7.17508 3.31131 7.5773 4.17195C7.84735 4.75201 8.02606 5.13491 8.0265 5.56435C8.0265 6.06713 7.77358 6.45485 7.46664 6.87332C7.40912 6.95192 7.35204 7.02701 7.29671 7.0999C6.96255 7.539 6.88922 7.6659 6.93752 7.89248C7.03544 8.34783 7.76567 9.70334 8.96574 10.9008C10.1658 12.0982 11.4822 12.7823 11.9394 12.8798C12.1756 12.9303 12.3051 12.8539 12.7583 12.5079C12.8233 12.4583 12.89 12.4069 12.9598 12.3555C13.4279 12.0073 13.7976 11.761 14.2886 11.761H14.2912C14.7184 11.761 15.0842 11.9463 15.6902 12.2519C16.4806 12.6506 18.2857 13.7268 19.0774 14.5256C19.4625 14.9137 19.6772 15.1614 19.7822 15.4394C19.9403 15.8578 19.7914 16.1858 19.6944 16.4054C19.6781 16.4418 19.6601 16.4818 19.6412 16.5261C19.4564 16.9642 19.2317 17.3843 18.9698 17.7811C18.5031 18.4793 18.0302 19.0198 17.2406 19.3873C16.8352 19.5791 16.3915 19.6762 15.9431 19.6714Z" fill="#DC6B2F"/>
</svg>
