<svg width="294" height="70" viewBox="0 0 294 70" fill="none" xmlns="http://www.w3.org/2000/svg">
<path d="M32.68 69.63V59.48H35.68C37.08 59.48 38.28 59.97 39.27 60.97C40.26 61.96 40.76 63.16 40.76 64.56C40.76 65.96 40.27 67.16 39.27 68.15C38.28 69.14 37.08 69.64 35.68 69.64H32.68V69.63ZM33.99 68.36H35.59C36.64 68.36 37.53 67.99 38.27 67.24C39.01 66.5 39.38 65.6 39.38 64.55C39.38 63.5 39.01 62.61 38.27 61.86C37.53 61.11 36.63 60.74 35.59 60.74H33.99V68.35V68.36ZM35.68 69.7H32.61V59.4H35.68C37.1 59.4 38.32 59.91 39.32 60.91C40.32 61.91 40.83 63.14 40.83 64.55C40.83 65.96 40.32 67.19 39.32 68.19C38.32 69.19 37.1 69.7 35.68 69.7ZM32.75 69.56H35.68C37.06 69.56 38.25 69.07 39.22 68.1C40.19 67.13 40.68 65.94 40.68 64.56C40.68 63.18 40.19 61.99 39.22 61.02C38.25 60.05 37.06 59.56 35.68 59.56H32.75V69.57V69.56ZM35.6 68.43H33.93V60.67H35.6C36.66 60.67 37.58 61.05 38.33 61.81C39.08 62.57 39.46 63.49 39.46 64.55C39.46 65.61 39.08 66.54 38.33 67.29C37.58 68.05 36.66 68.43 35.6 68.43ZM34.07 68.29H35.6C36.62 68.29 37.51 67.92 38.23 67.19C38.95 66.46 39.32 65.58 39.32 64.55C39.32 63.52 38.95 62.64 38.23 61.91C37.51 61.18 36.62 60.81 35.6 60.81H34.07V68.28V68.29ZM61.87 69.63V68.39H56.97V64.84H61.46V63.82H56.97V60.72H61.87V59.48H55.64V69.63H61.87ZM61.94 69.7H55.57V59.4H61.94V60.78H57.04V63.74H61.52V64.91H57.04V68.31H61.94V69.69V69.7ZM55.71 69.56H61.8V68.46H56.9V64.77H61.38V63.89H56.9V60.65H61.8V59.55H55.71V69.56ZM80.3 69.89L84.97 59.48H83.49L80.19 67.02L76.87 59.48H75.38L80.05 69.89H80.3ZM80.35 69.96H80.01L79.99 69.92L75.27 59.41H76.91L76.93 59.45L80.18 66.84L83.44 59.41H85.08L85.04 59.51L80.35 69.97V69.96ZM80.1 69.82H80.25L84.86 59.55H83.53L80.18 67.2L76.82 59.55H75.49L80.1 69.82ZM105.08 69.63V68.39H100.18V64.84H104.66V63.82H100.18V60.72H105.08V59.48H98.85V69.63H105.08ZM105.15 69.7H98.78V59.4H105.15V60.78H100.25V63.74H104.73V64.91H100.25V68.31H105.15V69.69V69.7ZM98.92 69.56H105.01V68.46H100.11V64.77H104.6V63.89H100.11V60.65H105.01V59.55H98.92V69.56ZM125.57 69.63V68.39H121.04V59.48H119.71V69.63H125.57ZM125.64 69.7H119.64V59.4H121.11V68.31H125.64V69.69V69.7ZM119.79 69.56H125.5V68.46H120.97V59.55H119.79V69.56ZM147.22 68.25C146.2 69.27 144.97 69.79 143.53 69.79C142.09 69.79 140.86 69.28 139.84 68.25C138.82 67.23 138.31 65.99 138.31 64.55C138.31 63.11 138.82 61.88 139.84 60.86C140.86 59.84 142.09 59.33 143.53 59.33C144.97 59.33 146.2 59.84 147.22 60.86C148.24 61.88 148.75 63.11 148.75 64.55C148.75 65.99 148.24 67.23 147.22 68.25ZM140.81 67.34C141.56 68.11 142.47 68.49 143.53 68.49C144.59 68.49 145.49 68.11 146.25 67.34C147 66.57 147.38 65.64 147.38 64.56C147.38 63.48 147 62.54 146.25 61.77C145.5 60.99 144.59 60.61 143.53 60.61C142.47 60.61 141.57 61 140.81 61.77C140.05 62.54 139.68 63.47 139.68 64.56C139.68 65.65 140.06 66.57 140.81 67.34ZM143.53 69.86C142.07 69.86 140.82 69.34 139.79 68.3C138.76 67.27 138.24 66.01 138.24 64.55C138.24 63.09 138.76 61.84 139.79 60.81C140.82 59.78 142.08 59.26 143.53 59.26C144.98 59.26 146.24 59.78 147.27 60.81C148.3 61.84 148.82 63.1 148.82 64.55C148.82 66 148.3 67.27 147.27 68.3C146.24 69.33 144.98 69.86 143.53 69.86ZM143.53 59.4C142.11 59.4 140.89 59.91 139.89 60.91C138.89 61.91 138.38 63.14 138.38 64.55C138.38 65.96 138.89 67.19 139.89 68.2C140.89 69.21 142.11 69.72 143.53 69.72C144.95 69.72 146.17 69.21 147.17 68.2C148.17 67.19 148.68 65.97 148.68 64.55C148.68 63.13 148.17 61.91 147.17 60.91C146.17 59.91 144.95 59.4 143.53 59.4ZM143.53 68.56C142.46 68.56 141.53 68.16 140.76 67.39C139.99 66.61 139.61 65.66 139.61 64.56C139.61 63.46 140 62.5 140.76 61.72C141.52 60.93 142.46 60.54 143.53 60.54C144.6 60.54 145.53 60.94 146.3 61.72C147.07 62.5 147.45 63.46 147.45 64.56C147.45 65.66 147.06 66.61 146.3 67.39C145.53 68.17 144.6 68.56 143.53 68.56ZM143.53 60.67C142.5 60.67 141.6 61.05 140.86 61.81C140.12 62.57 139.75 63.49 139.75 64.55C139.75 65.61 140.12 66.53 140.86 67.28C141.6 68.03 142.49 68.41 143.53 68.41C144.57 68.41 145.46 68.03 146.2 67.28C146.94 66.53 147.31 65.61 147.31 64.55C147.31 63.49 146.94 62.57 146.2 61.81C145.46 61.05 144.57 60.67 143.53 60.67ZM163.63 69.63V59.48H167.8C168.63 59.48 169.33 59.77 169.92 60.36C170.51 60.95 170.8 61.65 170.8 62.48C170.8 63.31 170.51 64.01 169.92 64.6C169.33 65.19 168.63 65.48 167.8 65.48H164.96V69.63H163.63ZM164.96 64.22H167.66C168.15 64.22 168.57 64.05 168.91 63.71C169.25 63.37 169.42 62.96 169.42 62.48C169.42 62 169.25 61.59 168.91 61.24C168.57 60.89 168.15 60.72 167.66 60.72H164.96V64.23V64.22ZM165.03 69.7H163.56V59.4H167.8C168.64 59.4 169.37 59.7 169.97 60.3C170.57 60.9 170.87 61.63 170.87 62.47C170.87 63.31 170.57 64.04 169.97 64.64C169.37 65.24 168.64 65.54 167.8 65.54H165.03V69.69V69.7ZM163.7 69.56H164.88V65.41H167.79C168.59 65.41 169.29 65.12 169.86 64.55C170.43 63.98 170.72 63.28 170.72 62.48C170.72 61.68 170.43 60.98 169.86 60.41C169.29 59.84 168.59 59.55 167.79 59.55H163.69V69.56H163.7ZM167.65 64.29H164.88V60.64H167.65C168.16 60.64 168.6 60.82 168.95 61.18C169.3 61.54 169.48 61.97 169.48 62.47C169.48 62.97 169.3 63.4 168.95 63.75C168.6 64.1 168.16 64.28 167.65 64.28V64.29ZM165.03 64.15H167.65C168.12 64.15 168.52 63.99 168.85 63.66C169.18 63.34 169.34 62.94 169.34 62.48C169.34 62.02 169.18 61.62 168.85 61.29C168.52 60.96 168.12 60.79 167.65 60.79H165.03V64.15ZM186.14 69.63L187.13 63.07L190.4 69.63H190.63L193.89 63.07L194.88 69.63H196.27L194.67 59.23H194.48L190.51 67.03L186.54 59.23H186.34L184.74 69.63H186.13H186.14ZM196.36 69.7H194.83V69.64L193.86 63.3L190.68 69.7H190.36L190.34 69.66L187.17 63.3L186.2 69.7H184.67V69.62L186.29 59.16H186.6L186.62 59.2L190.52 66.88L194.44 59.16H194.73V59.22L196.35 69.7H196.36ZM194.96 69.56H196.2L194.62 59.31H194.54L190.53 67.2L186.52 59.31H186.42L184.84 69.56H186.08L187.1 62.84L190.46 69.56H190.6L193.94 62.84L194.96 69.56ZM217.03 69.63V68.39H212.13V64.84H216.61V63.82H212.13V60.72H217.03V59.48H210.8V69.63H217.03ZM217.1 69.7H210.73V59.4H217.1V60.78H212.2V63.74H216.68V64.91H212.2V68.31H217.1V69.69V69.7ZM210.87 69.56H216.96V68.46H212.06V64.77H216.54V63.89H212.06V60.65H216.96V59.55H210.87V69.56ZM239.72 69.92V59.48H238.47V67.01L231.76 59.25H231.63V69.63H232.9V62.26L239.59 69.92H239.72ZM239.79 69.99H239.56L239.54 69.97L232.97 62.46V69.71H231.56V59.18H231.79L231.81 59.21L238.39 66.82V59.41H239.79V69.99ZM239.62 69.85H239.65V59.55H238.54V67.2L231.73 59.32H231.71V69.56H232.84V62.07L232.97 62.21L239.64 69.84L239.62 69.85ZM257.73 69.63V60.72H260.61V59.48H253.5V60.72H256.4V69.63H257.73ZM257.8 69.7H256.33V60.79H253.43V59.41H260.68V60.79H257.8V69.7ZM256.47 69.56H257.65V60.65H260.53V59.55H253.56V60.65H256.46V69.56H256.47ZM72.07 42.13C76.37 42.13 80.09 41.02 83.22 38.79C86.35 36.56 87.92 33.72 87.92 30.26C87.92 25.57 84.69 22.27 78.24 20.35L68.96 17.58C65.12 16.51 63.2 14.6 63.2 11.87C63.2 9.83 64.16 8.22 66.08 7.03C68 5.84 70.04 5.24 72.19 5.24C74.23 5.24 76.2 5.65 78.1 6.48C80 7.31 81.47 8.49 82.51 10.03L86.43 6.92C84.93 4.77 82.9 3.16 80.35 2.11C77.79 1.05 75.06 0.53 72.14 0.53C68.34 0.53 64.96 1.61 62.03 3.76C59.09 5.91 57.62 8.7 57.62 12.12C57.62 14.66 58.42 16.77 60.01 18.46C61.6 20.15 63.71 21.4 66.32 22.21L75.31 24.86C77.5 25.51 79.22 26.3 80.47 27.22C81.72 28.14 82.34 29.37 82.34 30.91C82.34 32.95 81.3 34.54 79.23 35.69C77.16 36.84 74.79 37.42 72.14 37.42C69.83 37.42 67.5 36.81 65.14 35.58C62.78 34.35 61.17 32.77 60.33 30.85L56.58 33.96C57.81 36.57 59.88 38.59 62.8 40.01C65.72 41.43 68.81 42.14 72.08 42.14M132.18 0.98H102.23V5.99H114.55V41.55H119.85V5.99H132.18V0.98ZM169.52 24.15C174.03 22.42 177.25 18.06 177.25 12.97C177.25 6.38 171.84 0.98 165.23 0.98H149.48V41.55H154.78V24.95H163.62L175.24 41.55H181.71L169.52 24.14V24.15ZM154.78 19.74V6.2H165.23C168.98 6.2 172.04 9.24 172.04 12.97C172.04 16.32 169.58 19.1 166.37 19.64C166 19.7 165.62 19.74 165.23 19.74H154.78ZM214.34 42.34C222.06 42.34 228.35 36.06 228.35 28.33V0.98H223.03V28.33C223.03 33.12 219.13 37.01 214.35 37.01H212.7C207.91 37.01 204.02 33.11 204.02 28.33V0.98H198.7V28.33C198.7 36.05 204.98 42.34 212.71 42.34H214.36M287.61 0L270.22 30.83L252.84 0L247.15 41.55H252.5L255.96 16.23L270.22 41.55L284.48 16.23L287.95 41.55H293.3L287.61 0ZM0 41.55H5.39L12.77 27.58L21.95 41.55L31.13 27.58L38.51 41.55H43.9L21.94 0L0 41.55ZM21.94 33.05L15.25 22.87L21.94 10.2L28.63 22.87L21.94 33.05Z" fill="#252A36"/>
</svg>
