<svg width="156" height="174" viewBox="0 0 156 174" fill="none" xmlns="http://www.w3.org/2000/svg">
<path d="M30.7221 172.895H28.9805V162.987H28.8807L24.1563 170.934H23.7963L19.0723 162.987H18.9721V172.895H17.3105V159.824H19.1524L24.0365 168.051H24.0763L28.9608 159.824H30.7221V172.895Z" fill="#00859B"/>
<path d="M34.4102 166.33C34.4102 164.435 35.1106 162.821 36.5118 161.486C37.9131 160.152 39.6276 159.484 41.6562 159.484C43.6709 159.484 45.3893 160.152 46.8107 161.486C48.2316 162.821 48.9421 164.435 48.9421 166.33C48.9421 168.252 48.2347 169.883 46.8203 171.224C45.4059 172.566 43.6844 173.236 41.6562 173.236C39.6276 173.236 37.9131 172.566 36.5118 171.224C35.1106 169.883 34.4102 168.252 34.4102 166.33ZM36.2314 166.33C36.2314 167.825 36.7551 169.093 37.8029 170.134C38.8502 171.174 40.1347 171.695 41.6562 171.695C43.1774 171.695 44.4684 171.171 45.5293 170.124C46.5902 169.076 47.1209 167.811 47.1209 166.33C47.1209 164.862 46.5902 163.612 45.5293 162.577C44.4684 161.543 43.1774 161.026 41.6562 161.026C40.1347 161.026 38.8502 161.543 37.8029 162.577C36.7551 163.612 36.2314 164.862 36.2314 166.33Z" fill="#00859B"/>
<path d="M62.5043 159.824H64.2459V172.895H62.6644L54.3575 162.867H54.3373V172.895H52.5957V159.824H54.1772L62.4842 169.853H62.5043V159.824Z" fill="#00859B"/>
<path d="M67.2852 161.365V159.824H79.1756V161.365H74.1112V172.895H72.3696V161.365H67.2852Z" fill="#00859B"/>
<path d="M92.3378 159.824H94.2195L88.1345 172.895H86.5132L80.4277 159.824H82.3894L87.3138 170.714H87.4341L92.3378 159.824Z" fill="#00859B"/>
<path d="M104.286 165.249V166.79H99.0014V171.354H108.229V172.895H97.2598V159.824H107.769V161.365H99.0014V165.249H104.286Z" fill="#00859B"/>
<path d="M113.347 172.895H111.605V159.824H118.812C120.413 159.824 121.634 160.265 122.475 161.145C123.142 161.853 123.476 162.707 123.476 163.708C123.476 164.575 123.202 165.336 122.655 165.99C122.108 166.644 121.367 167.097 120.433 167.351L123.656 172.895H121.674L118.672 167.571H113.347V172.895ZM118.812 161.365H113.347V166.03H119.252C119.959 166.03 120.553 165.803 121.034 165.349C121.514 164.896 121.754 164.342 121.754 163.688C121.754 163.114 121.547 162.607 121.134 162.166C120.6 161.633 119.826 161.365 118.812 161.365Z" fill="#00859B"/>
<path d="M125.607 161.365V159.824H137.498V161.365H132.434V172.895H130.692V161.365H125.607Z" fill="#00859B"/>
<path d="M3.75407 141.333H0V119.446H12.0667C14.8596 119.446 16.9709 120.217 18.4015 121.759C19.563 122.988 20.1445 124.452 20.1445 126.149C20.1445 127.603 19.7087 128.871 18.8373 129.954C17.9658 131.038 16.7924 131.86 15.3177 132.418L20.5465 141.333H16.2228L11.5304 132.92H3.75407V141.333ZM12.0667 122.798H3.75407V129.569H12.737C13.72 129.569 14.5744 129.233 15.3011 128.563C16.0269 127.892 16.3904 127.088 16.3904 126.149C16.3904 125.345 16.0885 124.62 15.4852 123.971C14.7253 123.189 13.5857 122.798 12.0667 122.798Z" fill="#00859B"/>
<path d="M40.0986 128.228V131.58H31.6857V137.982H46.5007V141.333H27.9316V119.446H45.6962V122.798H31.6857V128.228H40.0986Z" fill="#00859B"/>
<path d="M71.2827 121.96L69.0034 124.575C68.2662 123.905 67.2154 123.313 65.8526 122.799C64.4894 122.285 62.8917 122.027 61.0599 122.027C59.6294 122.027 58.4508 122.285 57.5237 122.799C56.5963 123.313 56.1325 124.105 56.1325 125.178C56.1325 125.714 56.2835 126.156 56.5853 126.502C56.8868 126.849 57.3781 127.111 58.0601 127.29C58.7413 127.469 59.3502 127.591 59.8866 127.658C60.423 127.726 61.1938 127.793 62.1996 127.859C62.4223 127.882 62.5903 127.893 62.7023 127.893C63.484 127.938 64.0873 127.983 64.5121 128.027C64.9365 128.072 65.5621 128.161 66.3889 128.295C67.2154 128.429 67.869 128.58 68.3498 128.748C68.8301 128.916 69.3888 129.172 70.0258 129.518C70.6627 129.865 71.154 130.262 71.5005 130.708C71.8466 131.155 72.1484 131.714 72.4057 132.384C72.662 133.055 72.7911 133.814 72.7911 134.664C72.7911 137.167 71.8912 139.015 70.0927 140.211C68.2938 141.406 65.9755 142.004 63.138 142.004C58.5571 142.004 54.5685 140.474 51.1719 137.412L53.4512 134.798C56.3556 137.434 59.607 138.753 63.2049 138.753C64.9251 138.753 66.3273 138.451 67.4113 137.848C68.495 137.244 69.037 136.351 69.037 135.166C69.037 133.892 68.5226 133.016 67.4953 132.535C66.4672 132.055 64.8691 131.726 62.7022 131.547C61.8977 131.502 61.2778 131.457 60.8421 131.412C60.4063 131.368 59.814 131.301 59.0654 131.211C58.3165 131.122 57.725 131.016 57.2892 130.893C56.8535 130.77 56.339 130.608 55.7471 130.406C55.1547 130.206 54.6914 129.96 54.3563 129.669C54.0212 129.379 53.68 129.038 53.3339 128.647C52.9874 128.257 52.7416 127.798 52.5968 127.273C52.4511 126.748 52.3789 126.162 52.3789 125.513C52.3789 124.284 52.641 123.212 53.1664 122.296C53.6909 121.379 54.401 120.676 55.2947 120.184C56.1881 119.692 57.1212 119.335 58.0933 119.111C59.0654 118.888 60.0988 118.776 61.1938 118.776C63.2937 118.776 65.2379 119.1 67.0259 119.748C68.8135 120.397 70.2323 121.134 71.2827 121.96Z" fill="#00859B"/>
<path d="M77.9219 130.34C77.9219 127.122 79.1118 124.39 81.4913 122.145C83.8712 119.899 86.7814 118.776 90.2227 118.776C93.6635 118.776 96.5911 119.905 99.0043 122.162C101.417 124.419 102.625 127.145 102.625 130.34C102.625 133.58 101.423 136.334 99.0209 138.602C96.6187 140.87 93.6862 142.004 90.2227 142.004C86.7814 142.004 83.8712 140.876 81.4913 138.619C79.1118 136.362 77.9219 133.603 77.9219 130.34ZM81.8768 130.34C81.8768 132.642 82.6865 134.602 84.307 136.222C85.9266 137.842 87.8987 138.652 90.2227 138.652C92.5689 138.652 94.5634 137.837 96.2057 136.205C97.848 134.574 98.6692 132.619 98.6692 130.34C98.6692 128.061 97.848 126.123 96.2057 124.524C94.5634 122.927 92.5689 122.128 90.2227 122.128C87.8764 122.128 85.899 122.927 84.2904 124.524C82.6813 126.123 81.8768 128.061 81.8768 130.34Z" fill="#00859B"/>
<path d="M113.664 141.333H109.91V119.446H121.977C124.77 119.446 126.881 120.217 128.312 121.759C129.473 122.988 130.055 124.452 130.055 126.149C130.055 127.603 129.619 128.871 128.747 129.954C127.876 131.038 126.703 131.86 125.228 132.418L130.457 141.333H126.133L121.441 132.92H113.664V141.333ZM121.977 122.798H113.664V129.569H122.647C123.63 129.569 124.485 129.233 125.211 128.563C125.937 127.892 126.301 127.088 126.301 126.149C126.301 125.345 125.999 124.62 125.395 123.971C124.635 123.189 123.496 122.798 121.977 122.798Z" fill="#00859B"/>
<path d="M135.053 122.798V119.446H156.001V122.798H147.421V141.333H143.667V122.798H135.053Z" fill="#00859B"/>
<path d="M54.4949 76.2139H51.3145V99.6092H54.4949V76.2139Z" fill="#00859B"/>
<path d="M62.6728 88.1572C63.6318 86.0549 66.0763 84.0483 69.5145 84.1543C74.4406 84.3069 75.7121 87.7237 75.5128 89.5513C75.3389 91.1523 73.4635 92.8898 68.4115 92.4689C63.5383 92.0638 61.9844 91.041 61.9844 91.041C61.9844 91.041 61.9244 89.7977 62.6728 88.1572ZM73.6172 93.7916C76.2592 93.0875 78.7567 91.7161 78.4716 88.5807C78.2006 85.5882 74.4749 82.6637 68.939 82.669C63.5533 82.6742 58.8463 86.2686 58.8012 91.1496C58.7561 96.0957 62.5907 99.6399 67.8184 100.209C74.0503 100.887 77.6836 97.8448 77.6836 97.8448L76.9494 96.8097C76.9494 96.8097 73.3693 99.3302 67.994 98.5492C62.2263 97.7108 61.9579 92.4698 61.9579 92.4698C61.9579 92.4698 63.5128 93.3479 66.6349 93.8649C68.6436 94.1986 71.0041 94.4898 73.6172 93.7916Z" fill="#00859B"/>
<path d="M94.1068 80.5034L90.4771 74.6543L88.6055 75.7758L93.3443 80.9684L94.1068 80.5034Z" fill="#00859B"/>
<path d="M124.255 87.0574C122.969 84.0907 120.28 82.645 116.015 82.8083C111.637 82.9777 109.334 86.347 108.512 87.8739V83.501H105.875V99.5779H108.917V90.426C109.466 88.458 111.141 84.6104 115.871 84.4674C121.865 84.2875 121.796 90.4224 121.796 90.4224V99.5667H124.862V90.4134C124.862 90.4134 124.998 88.7729 124.255 87.0574Z" fill="#00859B"/>
<path d="M96.4895 95.1579C95.0794 97.0828 92.3215 98.1161 90.0166 98.2359C87.6232 98.3605 85.2027 97.4155 84.9133 94.9525C84.6316 92.5493 86.4937 90.8232 89.8092 90.501C93.5808 90.1359 97.8168 91.2628 97.8168 91.2628C97.8168 91.2628 97.9809 93.1256 96.4895 95.1579ZM92.0056 82.49C85.785 82.3286 82.6839 85.1851 82.6839 85.1851L83.2788 86.1117C83.2788 86.1117 87.6022 83.1969 92.7117 84.0696C98.4547 85.051 97.8486 89.9064 97.8486 89.9064C97.8486 89.9064 95.4481 89.098 92.5034 88.8738C88.9665 88.6047 84.7112 88.9772 82.6232 91.6157C80.5731 94.2057 81.7036 99.8589 88.5985 100.055C95.8824 100.262 98.1405 94.8572 98.1405 94.8572V99.4149H100.983V90.2549C100.983 90.2549 101.102 88.7352 100.287 86.7655C99.6912 85.3254 97.8769 82.6418 92.0056 82.49Z" fill="#00859B"/>
<path d="M41.5838 95.1579C40.1727 97.0828 37.4151 98.1161 35.1109 98.2359C32.7167 98.3605 30.296 97.4155 30.0066 94.9525C29.7259 92.5493 31.587 90.8232 34.9036 90.501C38.6751 90.1359 42.9101 91.2628 42.9101 91.2628C42.9101 91.2628 43.0742 93.1256 41.5838 95.1579ZM37.0991 82.49C30.8786 82.3286 27.7775 85.1851 27.7775 85.1851L28.3724 86.1117C28.3724 86.1117 32.6955 83.1969 37.8051 84.0696C43.5482 85.051 42.9429 89.9064 42.9429 89.9064C42.9429 89.9064 40.5417 89.098 37.5967 88.8738C34.0598 88.6047 29.8045 88.9772 27.7175 91.6157C25.6665 94.2057 26.7971 99.8589 33.6928 100.055C40.9757 100.262 43.234 94.8572 43.234 94.8572V99.4149H46.0773V90.2549C46.0773 90.2549 46.1957 88.7352 45.3811 86.7655C44.7855 85.3254 42.9711 82.6418 37.0991 82.49Z" fill="#00859B"/>
<path d="M43.9344 26.9621C44.0704 25.0224 44.387 23.1446 44.9087 21.2667C44.9408 21.2197 44.9853 21.1183 45.0274 21.0142L45.3142 21.1924C45.1881 21.6278 45.0695 22.0633 44.9656 22.5012C44.7752 23.3945 44.6293 24.295 44.5279 25.1956C44.4413 25.8117 44.3721 26.4846 44.3301 27.1032C44.288 27.7216 44.2633 28.3402 44.2633 28.9613C44.3128 29.2013 44.3721 29.3843 44.4266 29.5649C44.4216 29.889 44.4241 30.2206 44.4315 30.5546C44.4413 31.0271 44.4636 31.5023 44.4958 31.9575C44.4736 32.0663 44.4611 32.1727 44.4413 32.2271C44.5056 32.7863 44.5774 33.2886 44.6739 33.8453L44.6787 34.1199C44.9458 35.2407 45.2821 36.3911 45.7049 37.5145C45.7049 37.5985 45.7 37.6481 45.7 37.7172C45.7 37.7396 45.7025 37.7594 45.7049 37.7865C45.8929 38.4867 46.0882 39.1276 46.3355 39.813C46.6248 40.325 46.8943 40.7803 47.2207 41.2702C47.3913 41.8466 47.6189 42.4676 47.8389 43.0317C47.4705 42.5617 47.1219 42.0768 46.8078 41.6314C46.5507 41.0599 46.291 40.4289 46.0857 39.8451C45.7 39.0038 45.3637 38.1429 45.0719 37.262C44.9385 36.8241 44.8147 36.3837 44.7035 35.9384C44.5823 35.6589 44.4686 35.4312 44.3548 35.1467C44.2312 34.5851 44.1372 34.0729 44.0877 33.5088C44.0086 32.9422 43.9592 32.4325 43.9196 31.8634C43.8701 31.2845 43.8455 30.7401 43.8306 30.176C43.8281 30.0178 43.8256 29.8594 43.8233 29.6961C43.8208 28.7856 43.8603 27.8727 43.9344 26.9621ZM47.0921 23.2782C47.0377 23.4984 47.0131 23.6814 46.9709 23.8991C46.9265 24.1589 46.8548 24.4632 46.7039 24.9506C46.8201 24.3692 46.9463 23.82 47.0921 23.2782ZM48.6771 16.7538C48.828 16.4001 48.9516 16.0908 49.1099 15.7345H49.1148C49.189 15.732 49.372 15.4895 49.6069 15.1357C49.6539 15.0664 49.7009 14.9947 49.7503 14.918C49.7528 14.913 49.7552 14.9106 49.7552 14.9081L49.7577 14.9056C49.7577 14.9056 49.7577 14.9031 49.7602 14.9031C49.7602 14.9015 49.761 14.8998 49.7627 14.8982C49.7627 14.8982 49.7652 14.8932 49.7677 14.8908L49.77 14.8857C49.775 14.8784 49.78 14.8709 49.785 14.8636C50.1089 14.3564 50.4995 13.723 50.8037 13.1885L50.8136 13.1787C50.685 13.5126 50.5293 13.8764 50.3932 14.2301C50.3883 14.2648 50.3808 14.2994 50.3734 14.3341C50.0618 14.7943 49.7627 15.2618 49.4783 15.7393C49.4758 15.7245 49.4684 15.7122 49.4634 15.6997C49.4511 15.7443 49.4388 15.7865 49.4264 15.8285C49.3991 15.8754 49.372 15.92 49.3473 15.967C49.1222 16.249 48.9244 16.4865 48.7118 16.7835C48.6747 16.9592 48.6475 17.1422 48.6128 17.3178C48.5189 17.506 48.4497 17.6519 48.3804 17.793C48.2716 17.9042 48.1578 18.0082 48.049 18.122C48.2419 17.6816 48.467 17.1892 48.6771 16.7538ZM51.2339 30.5348C51.4762 31.2128 51.7903 31.9847 52.186 32.7813C52.5791 33.5781 53.0538 34.3994 53.5905 35.1812C54.127 35.9632 54.728 36.7054 55.3411 37.3586C55.9543 38.0142 56.58 38.5833 57.1462 39.0459C58.2837 39.9687 59.1689 40.4809 59.2654 40.5427C59.3914 40.6665 59.52 40.7902 59.619 40.8941C60.4424 41.2306 60.7688 41.3122 61.1496 41.4458C61.565 41.6463 61.9507 41.8268 62.3809 42.005C62.6382 42.1213 62.9002 42.2351 63.1673 42.3365C63.4368 42.4306 63.7089 42.5196 63.9833 42.6037C64.1416 42.6779 64.3022 42.7522 64.426 42.8215C64.6163 42.8314 64.8067 42.8412 64.9972 42.8462C65.7192 43.0392 66.4536 43.1976 67.1583 43.3162C67.1681 43.3187 67.1781 43.3187 67.1854 43.3187H67.2077C67.2176 43.3162 67.2251 43.3162 67.2324 43.3162H67.2646C67.2744 43.3138 67.2869 43.3138 67.2992 43.3138H67.3487C67.6973 43.3781 68.0138 43.4376 68.3674 43.4871C68.2735 43.5612 68.177 43.6355 68.1202 43.7023C67.7666 43.6355 67.4525 43.5637 67.1038 43.4771C67.0593 43.4894 67 43.4969 66.9332 43.4994C66.8245 43.5019 66.6934 43.4919 66.5648 43.4796C66.5006 43.4771 66.4411 43.4771 66.3893 43.4796C66.2384 43.4821 66.1172 43.4969 65.9739 43.5414C65.4397 43.4251 64.8439 43.2767 64.2874 43.1158C64.0773 43.054 63.867 42.9922 63.6247 42.9155C63.4491 42.7894 63.239 42.6483 63.0684 42.5172C62.9324 42.5419 62.7964 42.5642 62.6258 42.574C61.7034 42.2351 60.7985 41.8367 59.9256 41.3766C59.7896 41.2579 59.6511 41.1415 59.5175 41.0202C59.4285 40.9757 58.526 40.4932 57.3514 39.6026C56.7654 39.1548 56.1151 38.6031 55.4746 37.9597C54.8318 37.3215 54.1988 36.5891 53.63 35.8171C53.0588 35.0428 52.5519 34.2287 52.1266 33.4345C51.7013 32.6427 51.3576 31.8734 51.093 31.1978C50.5613 29.8445 50.324 28.8722 50.2819 28.7831C50.1657 28.3329 50.0718 27.88 49.9901 27.4248C50.1632 27.6648 50.3314 27.8627 50.5168 28.0929C50.549 28.1993 50.7542 29.1765 51.2339 30.5348ZM51.2018 15.487C51.3601 15.2593 51.5232 15.0343 51.689 14.8116C51.6691 14.9081 51.6469 15.0045 51.6122 15.1258C51.4887 15.5711 51.4589 15.7963 51.4639 15.9349C51.4639 15.9769 51.4689 16.0115 51.4714 16.0413C51.4787 16.0685 51.4837 16.0931 51.4912 16.1154L51.4812 16.1303L51.3872 16.9022C51.3551 16.9344 51.3254 16.9567 51.3031 16.9567H51.3007C51.1498 16.9592 51.1746 16.3777 51.1153 16.1279L51.1128 16.1229C51.14 15.9101 51.1696 15.6973 51.2018 15.487ZM61.7554 38.8579V38.8554H61.7579C61.8049 38.8108 61.7776 38.7119 61.8939 38.7094C61.9235 38.707 61.9607 38.7119 62.01 38.7267H62.015C62.015 38.7267 62.0175 38.7292 62.02 38.7292H62.0249C62.1633 38.7985 62.3414 38.8628 62.4007 38.9445L62.2894 39.1153C62.1163 39.0385 61.9185 38.942 61.7529 38.8604C61.7529 38.8604 61.7529 38.8579 61.7554 38.8579ZM66.8442 41.7427H66.8615C66.9802 41.7304 67.1038 41.7254 67.2299 41.7205H67.2324C67.8481 41.7081 68.5381 41.7873 69.2502 41.8689C69.6434 41.911 70.044 41.9556 70.442 41.9852H70.4445C70.4642 41.9852 70.484 41.9877 70.5063 41.9902H70.536C70.9094 41.9234 71.2728 41.8418 71.6314 41.7477C72.2125 41.7007 72.7516 41.6289 73.3153 41.5127L73.3178 41.5547C73.0112 41.7304 72.7219 41.8887 72.393 42.0422C72.0321 42.1213 71.666 42.1956 71.2951 42.2574C71.0652 42.2277 70.8723 42.1906 70.6448 42.1584H70.63C70.573 42.1584 70.5162 42.1584 70.4618 42.1609C70.1799 42.1659 69.9227 42.1956 69.7176 42.25C69.7126 42.2524 69.7101 42.2524 69.7052 42.2549C69.7002 42.2574 69.6953 42.2574 69.6904 42.2574C69.2922 42.2154 68.9313 42.1584 68.5752 42.0866C68.4886 42.151 68.3303 42.1881 68.1004 42.1956H68.098C67.994 42.198 67.8729 42.1931 67.7369 42.1806C67.7344 42.1782 67.7319 42.1782 67.727 42.1782H67.7171C67.5242 42.1138 67.3066 42.0347 67.1211 41.958L66.8047 41.8566L66.8442 41.7427ZM73.1298 40.9757C73.4637 40.9362 73.8223 40.8743 74.1487 40.815C74.6135 40.6467 75.0661 40.4562 75.5012 40.2385C75.7238 40.1419 75.9389 40.038 76.154 39.9267C76.2703 39.808 76.3543 39.6967 76.4631 39.573C76.7203 39.4269 76.9453 39.2835 77.2099 39.1548C77.4596 38.9915 77.6846 38.8456 77.9245 38.6699C78.2336 38.4299 78.5105 38.1997 78.7949 37.9276C79.1485 37.5986 79.4823 37.2423 79.789 36.8588C80.4245 36.0275 80.9338 35.1244 81.3517 34.1471C81.3789 34.1274 81.4209 34.0803 81.453 34.0258L81.735 34.2015C81.6311 34.4365 81.5223 34.6667 81.4086 34.8967H81.4135V34.8992C81.4259 34.9042 81.4332 34.914 81.4382 34.9265C81.4729 34.9958 81.4209 35.164 81.4802 35.1615H81.4827C81.4852 35.1615 81.4927 35.1615 81.4975 35.159H81.5C81.416 35.3348 81.3219 35.545 81.2306 35.7182C81.0623 35.9112 80.8819 36.0918 80.7014 36.2725C80.511 36.5668 80.2884 36.8786 80.0733 37.1532C79.8581 37.4279 79.6307 37.695 79.3958 37.9474C79.2128 37.9722 79.0249 37.982 78.8468 37.9944C78.6836 38.232 78.4932 38.4892 78.2831 38.7342C78.2261 38.8703 78.1421 39.0261 78.0531 39.182C77.8057 39.375 77.5758 39.5408 77.3137 39.7114L77.1654 39.7585C76.6659 40.1494 76.0972 40.5057 75.4987 40.8175C75.432 40.8075 75.3974 40.7927 75.3306 40.7927C74.9423 40.9016 74.5789 40.9807 74.1832 41.06C73.8915 41.2132 73.622 41.3395 73.3153 41.4805C72.9667 41.4484 72.5883 41.4161 72.2496 41.3643C72.5611 41.2405 72.8652 41.1143 73.1298 40.9757ZM80.6643 18.4462C80.318 18.2185 79.9596 18.0181 79.6257 17.8573C79.2696 17.6569 78.9384 17.4935 78.56 17.3303C78.1198 17.1571 77.8577 17.1126 77.6698 17.0854C77.4819 17.0606 77.3607 17.0606 77.1827 17.0185C76.928 17.0062 76.6758 16.9963 76.3864 16.9913C76.0749 16.9171 75.7609 16.8578 75.4419 16.8106H75.4097C75.2366 16.8008 75.066 16.8008 74.8978 16.8033H74.8955C74.2748 16.8181 73.6887 16.9047 73.1323 17.016C73.1225 17.0185 73.1151 17.021 73.1052 17.021L73.1027 17.0235H73.0953C73.0928 17.0235 73.0903 17.026 73.0853 17.026L73.073 17.0285C72.3362 17.1819 71.6512 17.3724 70.9564 17.5258C70.5905 17.6569 70.2664 17.783 69.9104 17.9364C69.7694 17.9983 69.6286 18.0651 69.49 18.1319C69.3195 18.2135 68.5504 18.8618 68.2735 19.1339C68.0287 19.28 67.6256 19.7772 67.4105 19.9479C67.1163 20.2869 66.78 20.7099 66.5648 21.1108C66.3497 21.5092 66.1469 21.9347 65.9541 22.1549C66.1989 21.4299 66.5326 20.6704 67.0148 19.9925C67.1681 19.8836 67.5563 19.3491 68.0657 18.8618C68.5727 18.3744 69.0128 18.0057 69.0746 17.9514C69.2625 17.7855 69.6434 17.6619 69.762 17.6173C69.9995 17.5307 70.1354 17.4317 70.3777 17.3551L70.5262 17.2981C71.0107 17.2363 71.2185 17.1819 71.3421 17.1249C71.4633 17.068 71.4954 17.0086 71.6289 16.9642C72.0147 16.8528 72.3683 16.7612 72.7664 16.6771C73.4562 16.5509 74.166 16.4693 74.9177 16.4545C74.9844 16.452 75.0488 16.4495 75.1131 16.4495H75.1402C75.3925 16.4445 75.6866 16.452 75.9414 16.4643C76.065 16.489 76.1861 16.5138 76.3098 16.5336C76.8488 16.6103 77.3879 16.7265 77.9072 16.8924C78.565 17.0606 79.2103 17.2957 79.8211 17.5975C80.417 17.9191 80.9783 18.3026 81.4852 18.7357C81.7844 18.9682 82.0985 19.2453 82.3926 19.5397C82.593 19.7995 82.7785 20.0667 82.9491 20.3388C82.7883 20.1979 82.6177 20.0667 82.4421 19.943C81.9154 19.3789 81.3196 18.8716 80.6643 18.4462ZM76.023 19.0622C75.9957 19.0647 75.9685 19.0647 75.9439 19.0671C75.9019 19.0671 75.8722 19.0622 75.8375 19.0573C75.7436 19.0498 75.6669 19.0325 75.6026 19.0127C75.5878 19.0077 75.573 19.0028 75.5606 18.9978C75.6248 19.0053 75.6966 19.0177 75.7658 19.0275C75.8499 19.0375 75.9315 19.0473 76.023 19.0622ZM83.3249 36.0844C83.1692 36.3763 83.1321 36.6014 82.6894 37.0913C82.9218 36.7524 83.1296 36.4209 83.3249 36.0844ZM82.3581 33.1574C82.3556 33.1599 82.3506 33.1648 82.3482 33.1699V33.1673C82.3556 33.1525 82.3606 33.1377 82.3655 33.1227C82.4199 32.9843 82.4669 32.8358 82.5139 32.6948C82.5039 32.7294 82.4866 32.769 82.4768 32.8036C82.4891 32.7666 82.5014 32.732 82.5139 32.6948C82.4792 32.8358 82.4298 32.9868 82.3581 33.155L82.3581 33.1574ZM82.321 20.4724C82.321 20.4724 82.321 20.47 82.3185 20.47C82.3202 20.47 82.321 20.4708 82.321 20.4724ZM81.0327 37.0171C80.8274 37.2348 80.5975 37.4724 80.3601 37.6975C80.0486 38.1354 79.7024 38.5461 79.3315 38.9346L79.4254 39.0658C79.1287 39.3701 78.7331 39.6373 78.7356 39.7164V39.7214C78.5155 39.9366 78.3374 40.1024 78.1298 40.288C77.5561 40.6096 77.289 40.8026 77.289 40.8669C77.289 40.8818 77.3038 40.8916 77.3285 40.8916L77.0467 41.0995C76.8686 41.1984 76.6535 41.3073 76.4681 41.3964C75.8672 41.5127 75.4023 41.6586 74.7692 41.9754C74.9078 41.7552 75.0338 41.525 75.1526 41.2925C75.2737 41.2504 75.427 41.191 75.5753 41.1291C76.2084 40.8718 76.8192 40.5551 77.3681 40.2087C77.4126 40.1519 77.4571 40.0925 77.4695 40.0455C77.7637 39.8426 78.0703 39.6001 78.3449 39.3701C78.6811 39.0608 79.0249 38.7144 79.3265 38.3729C79.6604 38.1304 79.9645 37.8904 80.281 37.6084C80.3107 37.5466 80.3453 37.4872 80.3552 37.4501C80.6914 37.0518 80.998 36.6237 81.2874 36.1833C81.3541 36.1561 81.4036 36.1537 81.4654 36.1189C81.3269 36.4307 81.1934 36.7128 81.0327 37.0171ZM54.9084 9.00966C55.356 8.61627 55.8653 8.23781 56.308 7.88895C56.7333 7.56487 57.1215 7.27535 57.5642 6.97589C58.0611 6.66425 58.5656 6.37474 59.1269 6.07292C59.483 5.91205 59.6882 5.77358 59.9231 5.6152C60.158 5.45931 60.4251 5.28365 60.9146 5.08073L60.8998 4.99663C60.9023 4.99663 60.9023 4.99414 60.9048 4.99414L60.9073 4.99165C60.9171 4.98917 60.9246 4.98431 60.9344 4.98182V4.97934C60.9493 4.97436 60.9641 4.96702 60.9789 4.96204C60.9814 4.95956 60.9839 4.95956 60.9864 4.95707C60.988 4.95707 60.9897 4.95624 60.9913 4.95458H60.9938C61.0036 4.94961 61.0136 4.94475 61.021 4.93978C61.523 4.6973 61.921 4.28413 62.6826 4.26671H62.6851C62.7173 4.26423 62.7494 4.26423 62.7841 4.26671C62.3834 4.44002 61.9928 4.62054 61.6071 4.82097C62.2549 4.63049 62.9076 4.46963 63.5654 4.33103C64.3617 4.03667 65.1751 3.77939 66.0011 3.56416C65.7438 3.52945 65.4892 3.48739 65.2296 3.45766C65.4372 3.39582 65.5905 3.34146 65.7488 3.28696C66.1642 3.20535 66.5821 3.13605 67.0025 3.06427C67.9471 2.91585 68.8446 2.82427 69.7942 2.78471C69.8412 2.80698 69.9425 2.82427 70.0464 2.84417C70.0663 2.84168 70.086 2.8392 70.1083 2.8392C70.1181 2.83671 70.1256 2.83671 70.1354 2.83671H70.1553C70.1585 2.83505 70.161 2.83422 70.1626 2.83422C70.5385 2.81196 70.9094 2.79716 71.2853 2.7872H71.2878C71.4361 2.78471 71.5845 2.78222 71.7328 2.77986H71.7996L71.8168 2.70309H71.8466C72.0543 2.68567 72.2497 2.67584 72.4573 2.671H72.4598C72.9345 2.65855 73.4662 2.68331 74.2847 2.75758H74.2871C74.307 2.75758 74.3243 2.76007 74.344 2.76243H74.349C74.3563 2.76243 74.3638 2.76243 74.3713 2.76492H74.3761C74.9943 2.76989 75.4691 2.76741 75.981 2.76007C76.4582 2.7551 76.9749 2.74265 77.6624 2.75261C77.6896 2.76741 77.7119 2.78471 77.739 2.80212C78.424 2.92828 79.1015 3.0915 79.779 3.27463L80.239 3.4156C80.4467 3.47493 80.6074 3.50965 80.7707 3.54685C81.1663 3.70012 81.557 3.86099 81.9501 4.02683C82.7735 4.37804 83.5376 4.75663 84.3091 5.18958C84.1583 5.1377 84.0198 5.10797 83.8319 5.05111C83.5746 4.97683 83.2235 4.85056 82.5905 4.58842C82.4546 4.52908 82.3161 4.46961 82.1702 4.42022C81.5965 4.30875 80.966 4.21233 80.3873 4.14551C79.9101 3.98714 79.6455 3.83126 78.9582 3.76694C78.3993 3.66305 77.8355 3.57397 77.2643 3.50965C76.6758 3.49236 76.0378 3.47991 75.4468 3.48986C74.8533 3.45765 74.203 3.45765 74.2006 3.38101C74.2006 3.37603 74.203 3.37105 74.2055 3.3662C73.7876 3.33895 73.3673 3.31669 72.947 3.30673C72.6922 3.26218 72.4895 3.22014 72.2323 3.18058C71.7971 3.22512 71.3569 3.27213 70.9366 3.329C70.2591 3.35127 69.5865 3.40078 68.9139 3.47741C68.6097 3.45279 68.2561 3.44781 67.9495 3.44283C67.4772 3.56663 66.958 3.71006 66.4486 3.88077C65.7883 4.04909 65.5387 4.04909 65.232 4.08368C64.7796 4.19503 64.2775 4.32616 63.83 4.4548C63.1845 4.69479 62.6678 4.86548 62.156 5.04861C61.6416 5.23424 61.1322 5.43454 60.5239 5.75863C59.9107 6.04316 59.3494 6.3227 58.7584 6.66174C58.4073 6.73103 57.8806 7.11447 57.4677 7.47327C56.5058 8.11648 55.5464 8.85884 54.6834 9.63069C54.4658 9.75933 54.2284 9.91771 54.0108 10.0661C53.996 10.0463 53.9787 10.0291 53.9589 10.0191C54.179 9.69501 54.5202 9.34868 54.9084 9.00966ZM59.4335 3.53925C59.9577 3.30423 60.4324 3.11624 60.9691 2.91831C61.4858 2.72037 61.978 2.55217 62.4873 2.39129C62.4601 2.40125 62.4379 2.41108 62.4082 2.42352C61.5996 2.70307 60.8528 2.9876 60.069 3.32899C59.8489 3.39828 59.6412 3.47007 59.431 3.53924L59.4335 3.53925ZM65.6771 1.57242C67.5786 1.1641 69.4703 0.948868 71.4188 0.926594C71.4707 0.944012 71.5795 0.961305 71.6932 0.971135C72.6131 0.953843 73.5379 0.981091 74.4578 1.05524C75.3652 1.16161 76.2628 1.3201 77.153 1.51294C77.195 1.52538 77.2347 1.53771 77.2767 1.54766C77.2545 1.55997 77.2371 1.56992 77.2124 1.58224C76.8859 1.5204 76.5002 1.45858 76.1689 1.41155L76.1516 1.4536C75.8227 1.40421 75.437 1.35967 75.1056 1.32496C74.5714 1.28789 74.5221 1.35221 74.4578 1.39924C74.4009 1.4388 74.3291 1.46604 73.9657 1.44129C73.8866 1.43133 73.8049 1.41902 73.7258 1.41155H73.6591C73.3129 1.34475 73.0112 1.27794 72.7046 1.22593C72.0518 1.16907 71.849 1.3201 71.3545 1.32496C70.8154 1.28539 70.2689 1.27296 69.7819 1.25815C69.2304 1.2854 68.7358 1.3201 68.1845 1.37696C67.7691 1.44626 67.502 1.55263 67.2127 1.65652C67.1534 1.67878 67.094 1.69857 67.0321 1.71835C66.6266 1.73066 66.2162 1.75294 65.7983 1.79001L65.8033 1.65901C65.8033 1.64906 65.8058 1.63176 65.8058 1.61696C65.7983 1.61447 65.7933 1.61447 65.7859 1.61447C65.687 1.61447 65.5955 1.61198 65.504 1.61198C65.5634 1.59954 65.6202 1.58474 65.6771 1.57242ZM80.291 2.68329C80.239 2.66836 80.1895 2.65604 80.1376 2.6436C80.1475 2.64124 80.1574 2.63875 80.1672 2.63626C80.4491 2.65119 80.7854 2.7501 81.1069 2.84651C81.2231 2.89603 81.3419 2.94306 81.458 2.99257L81.9575 3.23754C82.3754 3.40823 82.7908 3.58887 83.2012 3.77935C83.5796 3.96248 83.8837 4.02182 84.7863 4.45976C84.7913 4.53639 84.9866 4.6898 85.219 4.86546C85.5554 5.12026 85.9485 5.41474 85.9361 5.5384C85.9336 5.53592 85.9288 5.53592 85.9288 5.53592C85.9263 5.53343 85.9263 5.53107 85.9238 5.53107H85.9213C85.9188 5.53107 85.9163 5.52858 85.9138 5.52858L85.9114 5.52609C85.909 5.52609 85.904 5.5236 85.899 5.52112H85.8966C85.6197 5.40243 85.3946 5.33811 85.0385 5.12524H85.036C85.0237 5.11778 85.0089 5.10795 84.994 5.10048C84.994 5.10048 84.9916 5.09799 84.9891 5.09563C84.9866 5.09314 84.9842 5.09314 84.9817 5.09065C83.8887 4.49933 82.8032 4.00205 81.641 3.56413C81.1959 3.3785 80.6915 3.18554 80.2315 3.03463C80.1747 2.99992 80.1327 2.97031 80.0857 2.93809C80.2687 2.9728 80.4516 3.0049 80.6396 3.04445L80.7533 2.8194C80.6001 2.76988 80.4467 2.72037 80.291 2.68329ZM86.5618 5.38999C86.9129 5.61766 87.2418 5.86499 87.5112 6.09266C87.0167 5.76111 86.5221 5.43453 85.9979 5.10297C85.9608 5.08319 85.9263 5.0659 85.8941 5.04611C85.7655 4.96699 85.6765 4.89769 85.5899 4.83076C85.8966 4.98428 86.2329 5.17476 86.5618 5.38999ZM67.8581 4.51413C68.0337 4.47208 68.2858 4.41771 68.5529 4.37554C68.6642 4.35824 68.7755 4.34095 68.8891 4.331C69.0227 4.31619 69.1537 4.30636 69.2725 4.30387C69.4308 4.30139 69.5568 4.3137 69.6631 4.33597C69.7077 4.34343 69.7571 4.35077 69.7892 4.36569C69.1439 4.39282 68.4985 4.44496 67.8581 4.51413ZM63.192 5.66704L63.6667 5.49636C63.9981 5.36037 64.3295 5.19453 65.5015 5.01388C64.7226 5.19453 63.9511 5.41225 63.192 5.66704ZM83.864 27.7415L83.9135 28.2388C83.8912 28.172 83.8714 28.1002 83.8565 28.0186C83.8492 27.734 83.8343 27.4495 83.8096 27.1873L83.864 27.7415ZM49.6712 19.2922C49.6217 19.9008 49.4981 19.3863 49.3967 19.9108C49.3695 20.0592 49.3621 20.1631 49.3621 20.2374C49.3671 20.4799 49.4833 20.4476 49.4907 20.8015V20.8064C49.4239 21.1875 49.3671 21.608 49.3201 21.994C49.2805 21.9148 49.2458 21.8728 49.2063 21.7937C49.2013 21.7071 49.1989 21.613 49.194 21.519C49.194 21.3953 49.1915 21.2716 49.189 21.1528C49.189 21.1355 49.189 21.1182 49.1865 21.1008C49.2063 20.7049 49.2385 20.2745 49.2805 19.8786C49.3126 19.5916 49.3448 19.3047 49.3868 19.0177C49.4189 18.8816 49.4511 18.7405 49.4882 18.5945C49.5699 18.4164 49.6539 18.2357 49.7405 18.0527L49.7948 18.0725C49.7132 18.6045 49.7775 18.8493 49.6712 19.2922ZM53.7066 46.8765C54.048 47.2626 54.3619 47.6064 54.7255 47.9751C54.8763 48.0444 55.1211 48.2275 55.3658 48.4155C55.6502 48.606 55.8431 48.7125 56.1003 48.7966C56.7036 49.2864 57.4108 49.8084 58.1032 50.2661C58.3628 50.4369 58.6249 50.6051 58.9365 50.7931C59.1516 51.001 59.4162 51.236 59.6437 51.439C59.8291 51.4661 60.0122 51.491 60.2421 51.5354C61.4785 52.191 62.7716 52.7428 64.0996 53.1857C64.322 53.302 64.552 53.4132 64.7819 53.5222C64.923 53.5469 66.3101 54.012 68.3996 54.3361C69.4431 54.497 70.6621 54.6158 71.9653 54.6331C71.9801 54.6356 71.9924 54.6356 72.0073 54.6356C72.3139 54.6379 72.6231 54.6379 72.937 54.6306H72.9395C73.9336 54.6083 74.9598 54.5266 75.981 54.3831C76.0007 54.3807 76.018 54.3782 76.0378 54.3758C77.4151 54.1802 78.7751 53.8686 80.0239 53.4777C81.2751 53.0867 82.4174 52.6241 83.3793 52.1664C85.3031 51.2483 86.5123 50.3899 86.6311 50.3058C87.1997 49.9322 87.7611 49.5388 88.305 49.1256C88.0652 49.4695 87.8599 49.7738 87.6053 50.1152C87.4618 50.2093 86.2427 51.1297 84.2992 52.1243C83.3275 52.6191 82.1751 53.1263 80.9091 53.5593C79.643 53.9922 78.2657 54.351 76.8686 54.5885C75.5829 54.8063 74.2871 54.9274 73.0508 54.9547C72.9395 54.9572 72.8307 54.9597 72.7244 54.9597C71.3941 54.9745 70.1478 54.8854 69.0771 54.7443C66.9358 54.4647 65.5015 54.017 65.3384 53.9799C65.106 53.8759 64.8735 53.7646 64.6954 53.6657C63.4393 53.3811 62.9621 53.245 62.3983 53.0669C61.7652 52.8022 61.199 52.5275 60.5907 52.2158C60.2248 52.013 59.8637 51.8026 59.5003 51.5923C59.1343 51.3844 58.7732 51.1717 58.4148 50.9465C58.212 50.7906 58.0092 50.6274 57.8608 50.4888C57.6112 50.3725 57.3614 50.2513 57.1141 50.1276C56.2116 49.4843 55.3535 48.7816 54.5795 48.0691C54.493 48.0023 54.4411 47.9751 54.3569 47.9083C53.9812 47.5421 53.6597 47.1982 53.3062 46.8122C53.4545 46.8444 53.6003 46.8791 53.7066 46.8765ZM93.3321 43.101C93.3988 42.7224 93.8513 42.1064 94.0789 41.7625C94.3483 41.1415 94.6846 40.4463 94.9641 39.8573C95.2484 39.2686 95.4784 38.7812 95.5748 38.603C95.5995 38.8083 95.612 39.0112 95.6243 39.2116C95.4537 39.5976 95.2731 39.9762 95.0853 40.3498C94.8255 40.8643 94.5214 41.4161 94.2272 41.911C94.0789 42.193 93.8934 42.5097 93.7327 42.7869C93.7055 42.908 93.698 42.9748 93.6708 43.096C93.2035 43.7987 92.7016 44.4766 92.1699 45.1298L92.071 44.9986C92.249 44.4741 92.8375 43.7616 93.3321 43.101ZM96.7345 35.0501C96.742 35.0278 96.7518 35.0032 96.7593 34.9809C96.7197 35.1664 96.685 35.3668 96.6628 35.5722C96.6307 35.5276 96.6183 35.4509 96.7345 35.0501ZM98.5767 30.5644L98.9056 31.0866C98.9304 31.2275 98.9599 31.3686 98.9921 31.5121C98.9575 31.47 98.9204 31.423 98.8858 31.3735C98.8413 31.8114 98.7869 32.247 98.7251 32.6824H98.7226V32.6774C98.7151 32.6452 98.7053 32.6329 98.693 32.6329C98.6855 32.6329 98.6806 32.6354 98.6731 32.6427C98.688 32.4497 98.7151 32.2543 98.7399 32.0588L98.5372 31.4775L98.5347 30.5596L98.5767 30.5644ZM98.6978 13.7353C98.688 13.8145 98.6756 13.8961 98.6608 13.9852C98.6262 13.859 98.6658 13.7996 98.6978 13.7353ZM99.2122 20.9376C99.1925 20.9005 99.1702 20.8658 99.1578 20.8237V20.3512C99.1578 20.512 99.1603 20.6703 99.2122 20.9376ZM100.533 24.6958C100.528 24.859 100.604 24.9531 100.476 25.2624L100.533 24.6958ZM100.807 34.1916C100.78 34.2163 100.758 34.2262 100.74 34.2262C100.669 34.2287 100.654 34.0778 100.624 33.9269C100.669 34.0382 100.706 34.1099 100.807 34.1916ZM100.881 13.6215C100.899 13.4334 100.901 13.2503 100.896 13.0723C100.891 12.8693 100.879 12.6714 100.876 12.4785C100.869 12.1939 100.879 11.9169 100.951 11.6397V11.1374C100.943 10.8604 100.923 10.5833 100.908 10.3061C100.965 10.2072 101.015 10.0884 101.074 9.98947C101.079 9.92752 101.079 9.86319 101.077 9.79651C101.074 9.71726 101.072 9.63316 101.069 9.54906C101.064 9.33631 101.074 9.12842 101.19 8.9948C101.232 9.30658 101.274 9.62072 101.309 9.91768C101.26 9.97703 101.24 10.0686 101.242 10.1775C101.245 10.2988 101.274 10.4422 101.312 10.5906C101.329 10.608 101.344 10.6451 101.354 10.6624C101.371 10.697 101.378 10.7342 101.396 10.7515C101.371 10.9742 101.346 11.1968 101.314 11.4196V11.4888C101.23 11.6521 101.203 11.746 101.205 11.8054C101.208 11.9019 101.274 11.9144 101.282 11.9885V12.4883C101.265 12.8149 101.25 13.1439 101.242 13.4879V13.817C101.228 13.8689 101.21 13.9184 101.203 13.9703C101.178 14.193 101.153 14.4157 101.119 14.6384L101.121 15.4672L101.047 16.2935L101.049 16.7933L100.923 17.1991C100.891 17.1125 100.847 17.0235 100.805 16.9344L100.802 15.9497V15.4474C100.824 15.2767 100.852 15.1233 100.884 14.9526C100.896 14.8659 100.899 14.7967 100.896 14.7398C100.894 14.5568 100.842 14.4973 100.839 14.3984C100.839 14.3884 100.839 14.3761 100.842 14.3613C100.807 14.2549 100.782 14.1509 100.755 14.0273L100.881 13.6215ZM101.168 51.1965L101.161 51.2212C101.153 51.1594 101.136 51.0901 101.099 51.0233C101.143 51.0331 101.176 51.0579 101.168 51.1965ZM43.9963 35.9161C44.2585 36.3491 44.476 37.126 44.7629 38.0067C45.0448 38.8876 45.3959 39.8773 45.8484 40.7209C45.9597 41.1588 46.1005 41.5918 46.244 42.0272C46.4542 42.4453 46.6743 42.861 47.0254 43.4746C47.149 43.5587 47.2702 43.6428 47.374 43.6725C47.1342 43.2148 46.8745 42.7001 46.6322 42.1781L46.8795 42.1262C47.1194 42.5864 47.3147 42.9378 47.5496 43.3385C47.6806 43.6503 47.7622 43.9175 48.0343 44.3604C48.5412 45.1397 49.095 45.8919 49.6762 46.6167C49.9408 46.9285 49.7775 46.5747 50.0816 46.9879C50.5738 47.5297 50.6231 47.6584 50.5936 47.7425C50.5688 47.8266 50.4723 47.8564 50.7171 48.1755C51.3304 48.6232 51.9684 49.3532 52.5816 49.9C53.0241 50.2217 53.3877 50.4517 53.7957 50.709C54.6562 51.471 55.4005 51.9535 56.0904 52.3173C56.4217 52.5473 56.7086 52.7353 57.0498 52.953C57.3886 53.245 57.6828 53.5023 58.0884 53.8091C58.3035 54.0665 58.5186 54.3288 58.8005 54.6108C59.3544 54.9274 59.9206 55.2269 60.4894 55.5163C61.1422 55.8355 63.0462 56.6866 65.7216 57.3002C67.0569 57.607 68.5825 57.8495 70.1997 57.9583C71.0553 58.0152 71.9356 58.035 72.8232 58.0152C73.617 57.9979 74.4182 57.9484 75.2169 57.8643C76.9131 57.6861 78.5921 57.3595 80.15 56.9166C81.7103 56.4763 83.1469 55.9246 84.3882 55.3579C86.8757 54.2223 88.5671 53.0422 89.1507 52.6834C89.7021 52.2653 90.0087 51.9114 90.4019 51.5057C90.7926 51.0974 91.2723 50.6397 92.1179 49.9247C92.3405 49.7367 92.5605 49.5461 92.7732 49.3433C93.1293 49.0464 93.4384 48.7816 93.8167 48.4155C94.0541 48.1507 94.294 47.8835 94.7489 47.3342L94.5833 47.0967C95.4537 45.9636 96.2375 44.7711 96.9298 43.5241L97.0411 43.336C97.6049 41.7996 98.4332 39.3107 98.4332 39.3107C98.4332 39.3107 97.6618 43.0589 97.3972 44.3628C97.3305 44.7018 97.2687 45.0481 97.2117 45.3747C97.276 45.7285 97.5579 45.8745 97.4467 46.4906C97.4293 46.5747 97.412 46.6613 97.4046 46.7478C97.3625 46.8815 97.323 47.0003 97.2884 47.1537V47.5693L97.5678 47.5866L97.6964 48.8386V48.9079C97.6816 48.9771 97.6643 49.0266 97.6544 49.0786C97.5208 49.5684 97.6568 49.4076 97.6989 49.5808L97.7755 49.7417C97.8002 49.8109 97.825 49.8654 97.8597 49.9197C97.8695 50.1449 97.8868 50.3527 97.9017 50.5779C97.9535 50.7016 98.0055 50.8104 98.0623 50.9342L98.2231 51.0999L98.3863 51.5255C98.4927 51.4438 98.604 51.3819 98.7128 51.3028V51.1296C98.8289 51.0505 98.9129 50.986 98.9897 50.9069L99.2765 51.0776C99.2765 51.0776 99.2765 51.0753 99.279 51.0753V51.0728C99.321 51.0183 99.3606 50.9935 99.4001 50.9935H99.4026C99.5114 50.9935 99.6102 51.1593 99.7117 51.2805C99.7389 51.3152 99.766 51.3449 99.7933 51.3671L99.7982 51.3696L100.001 51.9535C99.9986 51.9535 99.9961 51.956 99.9936 51.956C99.9886 51.956 99.9861 51.9584 99.9836 51.9584L99.9688 51.9659C99.9663 51.9659 99.9639 51.9684 99.9639 51.9684H99.9614C99.8748 52.0055 99.823 52.0525 99.7835 52.0846C99.7587 52.1045 99.7389 52.1168 99.7192 52.1193H99.7167C99.7067 52.1193 99.6944 52.1168 99.682 52.1045C99.6647 52.0525 99.6474 52.0005 99.64 51.9312C99.5534 51.3201 99.4026 51.5353 99.3185 51.2533L99.1925 51.8323C99.1504 51.8991 99.1182 51.9857 99.0762 52.0673L98.9501 52.0598C98.8834 51.8323 98.8141 51.6021 98.7448 51.3919L98.7473 52.0475C98.6558 52.0598 98.5643 52.0871 98.4704 52.1168C98.4284 52.2702 98.3864 52.4409 98.3442 52.6091L98.3492 53.5097C98.3146 53.574 98.2726 53.6236 98.2306 53.6731C98.2824 53.866 98.3418 54.0615 98.3912 54.2717C98.4605 54.6726 98.5865 54.5761 98.6781 54.6181L98.7968 54.2099C98.8215 54.1778 98.8462 54.1431 98.8809 54.1283C98.9724 54.1506 99.0639 54.1926 99.1578 54.2322C99.2245 54.2545 99.2913 54.2915 99.3581 54.3312L99.5609 54.0838L99.5584 53.6706V53.584H99.5634C99.5954 53.5691 99.6227 53.5617 99.6499 53.5617H99.6524C99.7389 53.5592 99.8057 53.6161 99.8675 53.6731C99.87 53.6731 99.87 53.6756 99.87 53.6756C99.8725 53.6779 99.8748 53.6779 99.8773 53.6804C99.9416 53.7422 100.006 53.8017 100.083 53.8017H100.085C100.097 53.8017 100.112 53.7992 100.127 53.7943H100.13L100.132 53.7918C100.157 53.8115 100.184 53.8486 100.209 53.8833V53.9699C100.367 53.9452 100.538 53.9204 100.696 53.9131L101.143 54.0986C101.23 54.299 101.349 54.4054 101.433 54.4054C101.517 54.4029 101.564 54.289 101.504 54.049L101.176 54.0293C101.21 53.8759 101.235 53.7572 101.26 53.6211C101.378 53.5592 101.502 53.5147 101.621 53.4702C101.663 53.2475 101.796 53.1188 101.744 52.822C101.643 52.7106 101.601 52.4161 101.618 52.1391C101.678 51.7234 101.554 51.7704 101.539 51.6739V51.6343C101.524 51.528 101.507 51.4067 101.497 51.3028L101.494 50.1449C101.536 49.8901 101.593 49.6501 101.569 49.321C101.457 48.7099 101.455 48.0196 101.361 47.4085C101.25 46.7108 100.997 46.263 100.918 45.2213C100.901 45.1322 100.884 45.0456 100.876 44.959C100.916 44.6845 101.245 37.8285 101.304 37.6949C101.351 37.2323 101.218 36.9131 101.173 36.5296C101.282 36.1733 101.334 36.0224 101.257 35.9481C101.156 35.681 101.297 35.0872 101.136 34.7829L101.168 34.2138V34.0405C101.181 33.9491 101.185 33.8798 101.185 33.8254C101.181 33.6225 101.094 33.6571 101.091 33.5507C101.089 33.5457 101.089 33.5408 101.091 33.5359L101.089 33.2069C101.215 32.7144 101.198 32.4892 101.131 32.2938V32.2072C101.156 32.0712 101.181 31.9524 101.203 31.799C101.171 31.6061 101.381 31.5318 101.245 31.3165C101.151 30.6213 101.25 29.4857 101.156 28.8919C101.171 28.6519 101.188 28.4119 101.195 28.1521C101.363 28.1447 101.21 27.8256 101.237 27.6549C101.047 25.5691 101.413 24.1935 101.223 22.1077C101.247 21.7811 101.272 21.4373 101.304 21.1107C101.648 20.5787 101.326 20.3882 101.378 19.9578L101.376 19.7846C101.574 18.639 101.658 17.7286 101.732 16.8354C101.616 14.9971 101.907 13.2354 101.962 11.5308C102.029 11.3253 102.053 10.9122 102.085 10.551C102.068 10.4471 102.051 10.3258 102.041 10.2219L101.712 9.28674L101.633 8.45044C101.601 8.34655 101.574 8.22277 101.549 8.11639C101.438 7.45328 101.228 7.44108 101.067 7.41371L100.985 7.40886C100.941 7.25049 100.899 7.07482 100.864 6.90164C100.965 6.61213 100.829 6.29302 100.819 5.99853C100.711 6.01098 100.602 6.0381 100.493 6.04805C100.51 5.89464 100.525 5.72146 100.533 5.56558C100.508 5.49629 100.483 5.44192 100.456 5.38991L100.256 5.37511C100.238 5.61758 100.223 5.87487 100.216 6.11734C100.055 6.55764 100.157 7.11438 100.016 7.34939C100.083 7.75025 100.043 8.24752 100.06 8.68296C99.9763 8.95268 99.8947 9.2249 99.818 9.49698L99.8205 10.0835C99.7858 10.1329 99.7612 10.1824 99.7364 10.2344C99.5559 10.264 99.5707 10.504 99.5089 10.504C99.4966 10.5065 99.4793 10.4965 99.4594 10.4742L99.3333 10.4669C99.326 10.2937 99.3086 10.1205 99.2913 9.96465L99.2888 9.54899C99.1875 9.54153 99.1973 9.24717 99.1059 9.24966C99.091 9.24966 99.0737 9.257 99.0539 9.27442C98.9179 9.38812 98.9599 9.77169 99.0119 9.94736L99.0144 10.4471C98.9971 10.4991 98.9797 10.5485 98.9724 10.6005C98.8809 10.9914 98.9229 11.2537 98.8561 11.266C98.7721 11.3303 98.688 11.4121 98.6138 11.4937C98.5223 11.5753 98.6187 11.9439 98.5322 11.9464C98.5149 11.9464 98.4877 11.9316 98.453 11.8995C98.369 11.9959 98.4284 12.1914 98.4555 12.3127L98.3294 12.7207C98.3394 13.3418 98.2973 13.6858 98.4927 14.1459C98.4852 14.1979 98.4679 14.2499 98.4605 14.2993C98.3269 14.6036 98.1836 14.8882 98.0575 15.1901L97.9313 15.1826L97.8892 15.1801C97.7088 15.4078 97.5976 15.5488 97.6024 15.7864C97.6024 15.8235 97.6074 15.863 97.6148 15.9051C97.6569 16.0264 97.7311 16.1005 97.7334 16.2341V16.2416C97.7261 16.4989 97.7088 16.7414 97.6914 16.9986L97.417 17.6395C97.4912 17.7311 97.5778 17.8225 97.6618 17.8968C97.6444 18.0675 97.6271 18.2406 97.6198 18.394C97.6 18.399 97.5778 18.4015 97.5555 18.404C97.417 18.4065 97.2983 18.2902 97.2142 17.9536C97.1326 17.9834 97.0559 18.0131 96.9719 18.0254L96.9966 27.5633C97.0979 27.7167 97.187 27.8774 97.2489 28.0433C97.1895 28.1174 97.1302 28.1867 97.0733 28.2585C97.0709 28.308 97.0684 28.3501 97.0659 28.3872L97.0559 28.501C97.0486 28.5751 97.0411 28.6469 97.0313 28.7162L96.9768 29.1369C96.9373 29.4189 96.9076 29.7307 96.9076 30.1686C96.9941 30.5025 96.9719 31.3834 96.8408 32.1849C96.7123 32.853 96.6825 33.1128 96.685 33.2637C96.6875 33.3849 96.7073 33.4344 96.6875 33.5655C96.6825 33.5953 96.6752 33.6323 96.6653 33.6744C96.6207 33.9837 96.5589 34.34 96.4972 34.6418C96.2325 35.7379 95.8789 36.8611 95.4685 37.9078C95.1495 38.5955 94.8207 39.2116 94.4053 40.0924C94.0417 40.9237 93.5842 41.7748 93.0725 42.5914C92.5631 43.4127 91.9993 44.197 91.4528 44.9269C90.8271 45.7558 90.3054 46.4435 89.6476 47.1907C88.9875 47.933 88.1962 48.747 86.9425 49.6897C86.7349 49.8579 86.5271 50.0212 86.3145 50.1745C86.1339 50.271 84.9249 51.0826 83.0554 51.9263C82.1207 52.3468 81.0203 52.7724 79.8211 53.1238C78.6243 53.4776 77.3311 53.7597 76.028 53.9328C75.0884 54.059 74.1412 54.1283 73.2264 54.1506C72.8752 54.1579 72.5291 54.1579 72.1877 54.1506C70.9614 54.1308 69.8214 54.0169 68.8496 53.8685C66.9011 53.5666 65.6277 53.1436 65.5362 53.1088C64.8859 52.9036 64.3295 52.7477 63.8028 52.5968C63.2736 52.4434 62.7716 52.295 62.2426 52.092C61.3276 51.575 60.9616 51.3152 60.7292 51.2855C60.3534 51.1494 59.7994 50.8401 59.2431 50.5012C58.6892 50.1646 58.1354 49.801 57.7175 49.6055C57.2649 49.2765 56.8272 48.9276 56.397 48.5688L56.0013 48.2447C55.5044 47.7796 55.304 47.6163 55.173 47.5396C55.0469 47.4604 54.9974 47.4629 54.8318 47.3021C54.6092 47.0918 54.3546 46.8394 54.1394 46.6217C53.6771 46.0576 53.3482 45.6419 53.0761 45.3227C52.8066 45.0036 52.5964 44.7735 52.3888 44.5681L52.233 44.3677C52.0054 44.0336 51.8176 43.7343 51.5802 43.3509C51.2291 42.9005 51.2933 42.6185 50.8384 42.1484C50.2572 41.2998 49.6167 40.1097 49.1075 38.9073C48.5881 37.7073 48.2024 36.4974 47.9305 35.6661C47.7597 34.9783 47.6189 34.2855 47.4903 33.5383C47.5719 33.5185 47.5323 33.2835 47.473 32.9891C47.4136 32.6947 47.332 32.3408 47.3147 32.091C47.0847 30.5768 47.0402 29.1665 47.1095 27.8354C47.1812 26.5018 47.3666 25.245 47.6436 24.0128C47.8637 23.0381 47.9403 22.4566 48.106 21.2518C48.2296 20.5837 48.373 20.1482 48.4695 19.547C48.5931 18.7849 49.2558 17.4143 49.6835 16.5855L49.681 16.578C49.6762 16.5187 49.6762 16.4568 49.6762 16.3974C49.681 16.2489 49.7058 16.1055 49.7355 15.9744C49.7775 15.7864 49.8343 15.6205 49.869 15.4992C49.9926 15.3236 50.1657 14.9426 50.2622 14.9401H50.2672L50.2968 14.9574C50.2004 15.3187 50.1064 15.6824 50.0248 16.0287C50.0051 16.1203 49.9828 16.2119 49.9631 16.3034C49.9383 16.3925 49.9136 16.4841 49.8888 16.5755C49.8666 16.6573 49.8468 16.7414 49.8245 16.8254C49.7503 17.2188 49.6885 17.6172 49.644 18.0179C49.6267 18.0749 49.6094 18.1318 49.5921 18.1912C49.4833 18.404 49.3794 18.6118 49.2781 18.8172L49.2212 18.7156C49.058 19.3812 48.9369 19.9973 48.9541 20.3387C48.9591 20.4476 48.9615 20.5614 48.9591 20.6802C48.9665 20.8089 48.9714 20.9375 48.9887 21.0562C48.964 21.2146 48.9344 21.4521 48.9392 21.6723C48.9442 21.8479 48.9714 22.0162 49.0432 22.1251C49.0234 22.3527 49.0085 22.5952 49.0159 22.8253C49.0234 23.1692 49.0703 23.4858 49.2013 23.6937L49.2113 23.8719C49.2335 24.3394 49.2558 24.7675 49.2929 25.2326C49.325 25.3416 49.3546 25.4479 49.3819 25.5914C49.4857 26.5563 49.6465 27.5163 49.8566 28.4664C49.9209 28.6396 49.9828 28.8128 50.0421 28.9859C50.0742 29.1244 50.2993 30.1066 50.8112 31.4576C51.0683 32.1306 51.3972 32.8951 51.8076 33.6819C52.2181 34.4686 52.7052 35.2802 53.2542 36.0522C53.8031 36.8215 54.4114 37.5514 55.0247 38.1973C55.6404 38.8405 56.261 39.4021 56.8199 39.8573C57.9376 40.7703 58.7857 41.2751 58.8375 41.327C59.6808 41.8787 60.3706 42.0667 61.1372 42.3637C61.7752 42.7596 62.0719 42.9178 62.2474 42.9154H62.2623C62.5492 42.9673 62.9769 43.1332 63.4245 43.2816C63.872 43.4275 64.337 43.5562 64.6707 43.5636C65.0565 43.675 65.4422 43.7863 65.8354 43.8804L66.1989 43.9595C66.2013 43.9595 66.2063 43.9595 66.2088 43.962C66.2112 43.962 66.2137 43.962 66.2162 43.9645C66.2212 43.9645 66.2236 43.9645 66.226 43.967C66.6044 44.0659 66.7948 44.0931 66.911 44.0931H66.9308C66.9778 44.0906 67.0124 44.0857 67.0421 44.0807C67.0446 44.0783 67.0471 44.0783 67.0471 44.0783H67.052C67.0841 44.0709 67.1113 44.0659 67.1509 44.0659C67.1657 44.0634 67.1831 44.0659 67.2004 44.0659H67.2028C67.2077 44.0684 67.2102 44.0684 67.2177 44.0684C67.2275 44.0684 67.2349 44.0708 67.2424 44.0708C67.2449 44.0708 67.2474 44.0733 67.2497 44.0733H67.2572C67.2597 44.0733 67.2597 44.0758 67.2597 44.0758H67.2671C67.2688 44.0758 67.2696 44.0767 67.2696 44.0783H67.2794C67.4995 44.1129 67.7542 44.15 67.9767 44.1772C68.7335 44.3627 69.2057 44.4097 69.5716 44.3999C69.7052 44.3974 69.8264 44.3875 69.9401 44.3751L70.1281 44.3801C70.4223 44.4097 70.6844 44.4345 71.0232 44.4493C71.0602 44.4469 71.0948 44.4445 71.1295 44.442C71.2457 44.442 71.3446 44.4568 71.4386 44.4716C71.535 44.4865 71.6265 44.5038 71.7328 44.5013C71.8342 44.4988 71.9455 44.4815 72.0839 44.4295C72.8505 44.3158 73.8619 44.1624 74.8262 43.8952C75.7906 43.6378 76.703 43.2668 77.2865 42.9277C77.7812 42.7051 78.2707 42.4527 78.7677 42.141C78.7776 42.1583 78.7974 42.1657 78.8172 42.1632C78.9878 42.1607 79.4379 41.7178 79.7173 41.5249C80.6322 40.7629 81.3864 39.986 82.044 39.1992C82.6993 38.41 83.2582 37.6108 83.7477 36.7745C84.2349 35.9358 84.6503 35.055 84.9891 34.0975C85.3253 33.1375 85.5875 32.096 85.7185 30.9356C85.8545 30.218 85.951 29.4535 86.0004 28.7137C86.1859 28.1199 86.176 27.6944 86.1216 27.3085C86.0647 26.9175 85.9633 26.5636 85.9138 26.0639C85.8941 25.9427 85.8743 25.8215 85.8446 25.6607C85.6987 24.3221 85.3526 23.1222 84.8654 22.0459C84.3759 20.9671 83.7454 20.0096 82.9763 19.161C82.133 18.3322 81.1687 17.622 80.1179 17.0852C79.0695 16.5484 78.0456 16.093 76.9181 15.9125C76.1886 15.7937 75.5508 15.4794 74.8385 15.4944C74.4454 15.5042 73.6368 15.4944 73.2561 15.5364C72.1804 15.6601 72.0592 15.8705 70.8426 16.1203C70.6028 16.1698 69.5222 16.7661 69.1364 16.9095C69.1364 16.9095 68.1943 17.5429 67.9322 17.7186C67.6454 17.9438 67.2201 18.4733 66.9852 18.7206C66.32 19.5421 66.0604 20.1037 65.7736 20.9078C65.4645 21.5807 65.1974 22.2586 65.0367 22.9118C64.9972 23.1692 64.9477 23.4562 64.918 23.706C64.7944 24.478 64.7647 24.1217 64.8167 24.3394C64.8685 24.5546 64.9575 24.5943 65.0318 24.6387C65.064 24.6512 65.0886 24.6586 65.1108 24.666C65.1035 25.0198 65.1405 25.3934 65.1703 25.7744C65.0615 26.3979 65.2791 27.0413 65.3681 27.6672C65.4769 27.6351 65.5757 27.5658 65.6821 27.5335C65.7068 27.8626 65.7414 28.2288 65.7908 28.5603C65.8403 28.7087 65.8873 28.8177 65.9368 28.9364C66.0109 28.9364 66.0727 28.9414 66.142 28.9414C66.1148 28.7928 66.1 28.6717 66.0802 28.5356L66.0282 28.1447C65.9961 27.8824 65.9689 27.6201 65.9417 27.3653C65.9664 26.9002 65.9096 26.4747 65.9244 26.0045C65.9368 25.5344 65.9417 25.198 66.0456 24.9679C66.0925 24.1192 66.3966 23.8323 66.6762 22.934C66.9358 22.4022 67.2374 21.8875 67.5836 21.4025C67.7814 21.0364 68.1053 20.6802 68.3872 20.3561L68.674 20.1655C68.6913 20.1755 68.7136 20.178 68.7358 20.178C68.8373 20.1755 68.9709 20.0864 69.0821 20.0196C69.1562 19.975 69.2205 19.938 69.2477 19.938C69.2725 19.938 69.275 19.9602 69.2428 20.0221L69.3071 20.1334C69.0351 20.3684 68.8026 20.643 68.6197 20.9053C68.4466 21.128 68.2908 21.3655 68.1498 21.608C68.1968 21.6451 68.1128 21.8331 68.0583 21.9964C68.0163 22.1251 67.9892 22.2364 68.041 22.2364C68.0535 22.2339 68.0732 22.2265 68.098 22.2117C68.2043 22.1424 68.3329 21.937 68.4639 21.7168L68.8126 21.1107C68.9956 20.8707 69.2205 20.6232 69.4728 20.4105L69.725 20.2669C69.8857 20.178 70.0366 20.1062 70.1701 20.0468C70.2394 20.0146 70.2987 19.9923 70.3605 19.9651L70.6523 19.7203C70.8204 19.6533 71.1863 19.4778 71.2383 19.4778C71.2531 19.4778 71.2606 19.4803 71.2655 19.4851C71.4139 19.5149 71.587 19.5346 71.76 19.5519C71.77 19.5519 71.7798 19.5544 71.7897 19.5519C71.9084 19.5494 72.1532 19.4505 72.3436 19.3862C72.4376 19.3565 72.5191 19.3317 72.5661 19.3317C72.6206 19.3292 72.6231 19.3615 72.5389 19.448C72.5538 19.4505 72.5736 19.4505 72.5909 19.4505C72.7937 19.4455 73.0928 19.307 73.2931 19.2328C73.4959 19.2179 73.9286 19.1165 74.1289 19.1115C74.1808 19.109 74.119 19.2847 74.171 19.2823C74.7372 19.1808 74.6977 19.3787 75.1007 19.354C75.5038 19.3292 75.7041 19.4455 76.1368 19.3985C76.2283 19.4183 76.3173 19.448 76.4087 19.4703C76.9256 19.6905 77.3533 19.8241 77.7812 20.126L77.7192 20.2398L77.6995 20.2744C78.0185 20.6307 78.34 20.8237 78.79 21.0339C78.9779 21.1007 79.1213 21.1057 79.2994 21.2393C79.6282 21.4941 79.9101 21.7688 80.1822 22.0854C80.3553 22.4072 80.4838 22.7163 80.6049 23.0529C80.7509 23.1295 80.9042 23.2112 81.0401 23.2731C81.1737 23.523 81.2949 23.7828 81.3987 24.0178C81.3665 24.0524 81.3295 24.0698 81.2874 24.0723C81.1638 24.0747 80.9883 23.9287 80.7014 23.5774C80.6544 23.659 80.6099 23.7333 80.5456 23.7903C81.1514 24.8318 81.5248 26.0664 81.6361 27.3331C81.7523 28.6221 81.6361 29.9978 81.3295 31.3165C80.7162 33.9614 79.3167 36.4058 77.341 37.9943C77.0417 38.5411 76.5868 39.068 75.9167 39.2809C75.7832 39.5233 75.432 39.7188 75.0092 39.8845C74.5839 40.0503 74.0869 40.1865 73.6443 40.367C73.4069 40.3497 73.1769 40.3397 72.9445 40.3175C72.717 40.3595 72.4895 40.3992 72.1409 40.4437C72.0814 40.5179 72.0222 40.5847 71.9924 40.6639H72.079C72.3213 40.6565 72.5834 40.6417 72.843 40.6194L72.853 40.8642C72.5859 40.9113 72.3758 40.941 72.1334 40.9707C71.9628 40.9508 71.8218 40.9014 71.577 40.9088H71.5325C71.1815 40.941 70.8254 40.9658 70.4693 40.9731C70.3307 40.9756 70.1948 40.9756 70.0588 40.9756C69.8758 40.9831 69.9846 41.0524 69.8685 41.0573C69.8437 41.0573 69.8115 41.0548 69.7645 41.0499H69.7176C68.9906 41.0672 69.4901 40.8024 69.0796 40.7158C68.9609 40.7529 68.8323 40.7678 68.7013 40.7703C68.3774 40.7777 68.0287 40.7085 67.7171 40.6713C67.4155 40.6886 67.1756 40.7133 66.9011 40.7258C66.283 40.5724 65.7958 40.5006 65.3482 40.4733C65.1306 40.414 64.9427 40.3621 64.7276 40.2952C64.51 40.1592 64.327 40.0281 64.0872 39.8747C63.9611 39.7088 63.8423 39.5308 63.694 39.3501C63.3849 39.2091 63.0832 39.0606 62.7891 38.8973C62.4552 38.7118 61.4711 38.2714 60.3014 37.5069C59.7154 37.1234 59.0873 36.6607 58.4716 36.1213C57.8559 35.582 57.2551 34.9684 56.7086 34.3054C56.1646 33.6398 55.675 32.9321 55.262 32.2196C54.8491 31.512 54.5128 30.8044 54.2482 30.1586C53.724 28.8646 53.4866 27.828 53.4421 27.4767C53.3358 27.1377 53.1949 26.9299 53.0663 26.6577C52.9376 26.388 52.819 26.0515 52.7893 25.4677C52.782 25.3118 52.7795 25.1584 52.767 25.005C52.7795 24.76 52.7968 24.5448 52.8042 24.2677C52.7868 24.0846 52.7695 23.899 52.7473 23.5279L52.4679 23.5056C52.3838 22.7535 52.3368 21.9939 52.3318 21.2393L52.3393 21.1156C52.3616 20.9943 52.3838 20.9028 52.3986 20.8138C52.4999 20.3783 52.5174 20.2373 52.5024 20.1582C52.4901 20.0814 52.4456 20.069 52.4431 19.9132L52.4382 19.8612C52.7572 17.59 53.4223 14.8708 54.7923 12.8123C56.1077 10.838 58.2515 9.02695 59.3297 8.1807C60.21 7.69089 61.0829 7.27275 61.9656 6.90661C64.3295 5.78329 66.8542 5.17467 69.3418 4.98905C69.7522 4.95944 70.1626 4.93966 70.5706 4.9297C70.7809 4.92485 70.9935 4.92236 71.2037 4.92485L72.173 4.93717L73.1521 4.96193C74.4454 5.00647 75.7065 5.08809 76.9281 5.21921C77.5042 5.33802 78.6713 5.50374 79.6555 5.73141C79.9472 5.77098 80.286 5.82534 80.5704 5.88482C81.463 5.98123 82.3038 6.11236 83.1815 6.31279C83.9233 6.55277 84.6503 6.83234 85.3649 7.15158C85.6469 7.25297 85.9683 7.38895 86.2428 7.50777C87.0934 7.91099 87.541 8.11154 87.8106 8.17822C87.9069 8.20298 87.9762 8.21044 88.033 8.21044C88.1345 8.20796 88.1838 8.17337 88.2383 8.14612C88.263 8.12386 88.2828 8.10407 88.3001 8.08677C88.7105 8.30686 89.1557 8.56676 89.5884 8.8488C90.1991 9.42769 91.0152 9.92508 91.6729 10.5016C91.7273 10.4051 91.7445 10.2714 91.7965 10.1724C92.1304 10.4916 92.4988 10.8528 92.8252 11.1819C92.9958 11.313 93.1293 11.4094 93.2629 11.506L93.4409 11.3972C92.9365 10.8701 92.38 10.3258 91.8385 9.83849L91.7397 9.90767C91.5542 9.74693 91.3688 9.59353 91.1808 9.44996C91.2155 9.47223 91.2426 9.48953 91.2773 9.5118C91.4924 9.60833 91.7445 9.74693 91.9919 9.89038L92.1329 9.78899C92.1031 9.74445 92.0734 9.70489 92.0438 9.66022C92.3182 9.94488 92.5878 10.2294 92.8474 10.5189C92.4493 9.91514 92.0611 9.36337 91.6111 8.78449C91.3391 8.61616 91.0547 8.46289 90.8149 8.35154C90.4094 7.9482 89.9915 7.55978 89.6008 7.22574C89.6081 7.11937 89.6947 7.09212 89.9148 7.18617C90.1324 7.28259 90.4835 7.50293 90.9979 7.91361C90.9854 7.78733 90.9657 7.66864 90.9979 7.57956C86.9995 3.93019 81.96 1.42878 76.614 0.466459C73.9435 -0.02112 71.1988 -0.127481 68.4936 0.152193C65.7859 0.431736 63.1253 1.09485 60.6007 2.1067C59.525 2.79208 58.3999 3.51703 57.0968 4.11819C57.03 4.18997 56.9485 4.26661 56.8569 4.34337C56.8099 4.33093 56.7654 4.31612 56.7334 4.29385C55.1087 5.29089 53.5881 6.45376 52.1885 7.75026C52.0772 7.82453 51.9684 7.8988 51.8571 7.97544C51.5134 8.29468 51.1721 8.61865 50.6826 9.12837C50.6628 9.19269 50.6406 9.25464 50.6257 9.31399C48.7414 11.3476 47.1417 13.6511 45.9077 16.1426C44.701 18.5747 43.8356 21.1825 43.3534 23.8619C42.8687 26.5415 42.7674 29.2828 43.037 31.992C43.3955 33.2167 43.7811 34.4983 43.9963 35.9161Z" fill="#00859B"/>
</svg>
