<svg width="256" height="32" viewBox="0 0 256 32" fill="none" xmlns="http://www.w3.org/2000/svg">
<path d="M20.9311 31.5734V31.1471C21.1456 31.13 21.3591 31.102 21.5706 31.063C21.9415 30.9996 22.3048 30.899 22.6545 30.763C23.0128 30.625 23.3402 30.4214 23.6193 30.1631C23.7536 30.0351 23.858 29.8805 23.9254 29.7098C23.9926 29.5391 24.0213 29.3564 24.0095 29.1739C23.9785 28.7457 23.8984 28.322 23.771 27.911C23.6083 27.327 23.3808 26.6166 23.0881 25.7747C22.7954 24.9329 22.4594 24.0067 22.0746 22.9806C21.6898 21.9546 21.2833 20.8758 20.8443 19.7762H9.14852C8.71133 20.8601 8.28498 21.8932 7.86947 22.8754C7.45395 23.8576 7.04385 24.8468 6.63918 25.8431C6.16045 26.8705 5.8496 27.9641 5.71783 29.0844C5.71082 29.2529 5.73835 29.4212 5.79883 29.5792C5.8593 29.7373 5.95152 29.8821 6.0701 30.0053C6.32367 30.2626 6.63022 30.4652 6.96979 30.5999C7.3491 30.7617 7.74787 30.8767 8.15671 30.9419L9.36531 31.1367V31.5628H0V31.0945C0.688604 31.0314 1.35554 30.827 1.95653 30.4946C2.30078 30.3227 2.61977 30.1068 2.90498 29.8527C3.2848 29.4154 3.62226 28.9452 3.91306 28.4477C4.55234 27.3856 5.12605 26.2874 5.63111 25.159C6.24173 23.8226 6.93004 22.3001 7.69604 20.5917L10.0482 15.3298C10.8575 13.5232 11.6633 11.7009 12.4654 9.8627C13.2676 8.02453 14.0082 6.30914 14.6875 4.71654L14.2485 3.77466C14.7563 3.55947 15.2364 3.28751 15.6793 2.96433C16.0824 2.67104 16.4579 2.34351 16.8012 1.98562C17.095 1.676 17.3666 1.34725 17.6142 1.00164C17.831 0.691184 17.999 0.433351 18.1181 0.233398H18.4705C19.381 2.59775 20.2463 4.83932 21.0665 6.95811C21.8867 9.07692 22.6707 11.1185 23.4186 13.0829C24.1667 15.0509 24.8893 16.9522 25.5866 18.7869C26.2839 20.6215 26.9903 22.4351 27.7057 24.2276C28.031 25.1118 28.3289 25.8431 28.6054 26.4271C28.8818 27.0112 29.2016 27.6743 29.5538 28.4109C29.6724 28.6189 29.8045 28.8193 29.9495 29.0107C30.1865 29.3302 30.459 29.6232 30.7625 29.8843C31.1355 30.2082 31.5579 30.4744 32.0144 30.6735C32.5688 30.9163 33.1678 31.0487 33.7758 31.063V31.5891L20.9311 31.5734ZM15.1753 5.70052C15.0019 6.06885 14.7471 6.65293 14.4057 7.44748C14.0643 8.24203 13.6523 9.21548 13.1537 10.352C12.6551 11.4886 12.1077 12.7778 11.5278 14.2143C10.9479 15.6508 10.2758 17.2136 9.57125 18.8921H20.5192C19.9934 17.5977 19.511 16.3296 18.9691 15.0509C18.4272 13.7723 17.961 12.5357 17.4733 11.3676C16.9855 10.1995 16.5519 9.10497 16.1563 8.121C15.7606 7.13702 15.4354 6.32669 15.1753 5.70052Z" fill="#00859B"/>
<path d="M68.9336 26.8324C68.3636 27.9174 67.5528 28.8663 66.5598 29.6106C65.4814 30.4096 64.2483 30.9895 62.934 31.3156C61.4267 31.6977 59.8741 31.8852 58.3164 31.8733C57.079 31.8888 55.8424 31.8026 54.6201 31.6155C53.7516 31.4838 52.8972 31.2761 52.0673 30.9945C51.5427 30.8188 51.0349 30.5987 50.5498 30.3368C50.359 30.2003 50.1441 30.0987 49.9158 30.0369C49.8291 30.0369 49.6339 30.2053 49.3413 30.5631C49.0487 30.9209 48.7992 31.2313 48.5499 31.5471H48.1544L48.0243 23.049H48.4633C48.7311 23.8242 49.0703 24.5746 49.4768 25.2907C49.8759 26.0026 50.323 26.6881 50.8155 27.3428C51.2715 27.9508 51.787 28.5147 52.3546 29.0266C52.8246 29.459 53.3492 29.8321 53.9155 30.1368C54.5515 30.4466 55.2132 30.7036 55.8938 30.905C57.1847 31.3082 58.5582 31.3967 59.8927 31.1626C61.2273 30.9285 62.4821 30.3794 63.5464 29.5634C64.2232 28.9768 64.7568 28.2512 65.1084 27.4392C65.46 26.6273 65.6207 25.7495 65.5788 24.8697C65.595 24.1489 65.4585 23.4324 65.1777 22.7649C64.9244 22.176 64.5564 21.64 64.0938 21.1864C63.6136 20.732 63.0654 20.3505 62.4678 20.055C61.8244 19.7335 61.162 19.4489 60.4842 19.2026C59.7851 18.9448 59.1672 18.7343 58.6415 18.5607C58.1159 18.387 57.6226 18.2292 57.1673 18.0713C56.7121 17.9134 56.2407 17.7556 55.7582 17.603C55.2759 17.4504 54.6743 17.2399 54.0239 16.9821C53.2399 16.6878 52.4999 16.2931 51.8235 15.8086C51.1238 15.3141 50.5013 14.724 49.9754 14.0564C49.4433 13.3794 49.0144 12.6316 48.7018 11.8359C48.3855 11.0205 48.2274 10.1552 48.2356 9.2839C48.2003 7.91369 48.4973 6.55461 49.1028 5.31642C49.6585 4.23286 50.4565 3.28361 51.4388 2.53813C52.4438 1.78342 53.5907 1.22581 54.8152 0.896421C56.1234 0.53748 57.4772 0.360322 58.8367 0.37023C59.9746 0.354099 61.1108 0.461762 62.224 0.691206C63.0136 0.859332 63.7863 1.09529 64.5328 1.3963C65.0096 1.58614 65.4654 1.82238 65.8931 2.1014C66.0504 2.22614 66.2212 2.33376 66.4026 2.42238C66.4893 2.42238 66.6735 2.24873 66.9446 1.89619C67.2156 1.54363 67.4865 1.2174 67.7142 0.875374H68.1965V8.76824H67.7467C67.3794 7.79795 66.9241 6.86116 66.3864 5.9689C65.8471 5.07142 65.1973 4.24095 64.4516 3.4958C63.7212 2.77474 62.8734 2.1756 61.9422 1.72254C60.971 1.26068 59.9018 1.02639 58.8204 1.03849C57.9469 1.03486 57.0781 1.16448 56.246 1.42261C55.4701 1.66416 54.7529 2.0562 54.1377 2.57497C53.5286 3.09871 53.0473 3.74761 52.7286 4.47452C52.3704 5.29644 52.1914 6.18149 52.2029 7.07391C52.1704 7.73994 52.278 8.40544 52.5194 9.0297C52.7607 9.65395 53.1307 10.2239 53.6066 10.7046C54.6457 11.6709 55.8883 12.407 57.2487 12.862C57.8286 13.0883 58.3814 13.2882 58.8746 13.4567C59.3678 13.625 59.8935 13.7934 60.3866 13.9512L61.9042 14.4405C62.4137 14.6142 62.9503 14.7983 63.5301 14.9983C65.3413 15.5983 66.9417 16.6816 68.1478 18.1239C69.2707 19.5786 69.8448 21.3639 69.7737 23.1807C69.7992 24.4456 69.511 25.6981 68.9336 26.8324Z" fill="#00859B"/>
<path d="M115.44 8.8577C115.19 8.31824 114.911 7.79139 114.606 7.27913C114.281 6.72137 113.955 6.22675 113.614 5.70055C113.273 5.17437 112.947 4.7692 112.628 4.3535C112.38 4.02335 112.1 3.71678 111.793 3.43794C111.237 2.9008 110.548 2.51126 109.793 2.30663C108.891 2.09604 107.967 1.98831 107.04 1.98565C106.498 1.98565 105.999 1.98565 105.593 1.98565C105.186 1.98565 104.769 1.98565 104.357 1.98565H101.457C101.457 2.69601 101.457 3.6642 101.457 4.88496C101.457 6.10572 101.457 7.38964 101.457 8.73141V25.3802C101.457 26.2062 101.457 26.9955 101.523 27.7532C101.515 28.3059 101.659 28.8507 101.94 29.3317C102.383 29.9638 103.047 30.4181 103.81 30.6104C104.522 30.8221 105.246 30.9978 105.978 31.1367V31.5629H91.6477V31.1367C92.3924 31.056 93.1286 30.9134 93.8482 30.7104C94.665 30.4456 95.387 29.9601 95.9294 29.3108C96.1056 29.1106 96.2203 28.8662 96.26 28.6057C96.3421 28.2394 96.4018 27.8686 96.4388 27.4954C96.4821 27.085 96.5093 26.6324 96.5256 26.1484C96.5417 25.6643 96.5256 25.1959 96.5256 24.7434C96.5256 24.2908 96.5256 23.8173 96.5256 23.1648C96.5256 22.5123 96.5256 21.7863 96.5689 20.9917C96.6123 20.1971 96.5689 19.3657 96.5689 18.5133V1.94356H94.943C94.504 1.94356 92.8834 1.94356 92.4607 1.94356C92.038 1.94356 91.5393 1.94356 90.9866 1.94356C90.0564 1.94164 89.1307 2.07103 88.2387 2.32767C87.4862 2.57414 86.8007 2.98245 86.2335 3.52213C85.9499 3.80539 85.694 4.11367 85.4693 4.44296C85.1603 4.84287 84.8406 5.2796 84.5045 5.74791C84.1527 6.23533 83.8288 6.74124 83.5344 7.26335C83.2445 7.76758 83.0016 8.29586 82.8082 8.84192L82.4125 8.71563L83.7349 0.617553C84.4071 0.759625 85.0303 0.875387 85.6048 0.959578C86.428 1.06298 87.2569 1.11921 88.087 1.12796C89.2035 1.15953 90.2007 1.18058 91.0787 1.19636C91.9567 1.21215 92.8075 1.19636 93.626 1.19636H99.0836C100.168 1.19636 103.712 1.19636 104.536 1.19636L107.083 1.14901C107.967 1.14901 108.964 1.14901 110.075 1.14901C110.879 1.1385 111.68 1.06104 112.47 0.917482C113.104 0.785935 113.755 0.622816 114.432 0.422863L115.836 8.75247L115.44 8.8577Z" fill="#00859B"/>
<path d="M152.295 31.5733C152.029 31.3155 151.84 31.1261 151.725 30.9944C151.612 30.8629 151.476 30.7209 151.33 30.5472C151.134 30.3089 150.953 30.0595 150.788 29.8C150.572 29.4739 150.246 28.9844 149.753 28.3267C149.211 27.5322 148.706 26.8112 148.284 26.1693C147.861 25.5274 147.423 24.896 146.983 24.2698C146.545 23.6436 146.067 23.0122 145.553 22.3702C145.038 21.7282 144.436 21.0126 143.732 20.2181C143.142 19.5605 142.503 18.9467 141.818 18.3817C141.203 17.8523 140.456 17.4892 139.65 17.3293C139.232 17.2314 138.807 17.1734 138.377 17.1557C138.112 17.1557 137.775 17.1557 137.363 17.1135V21.9388C137.363 23.3069 137.377 24.4592 137.406 25.3958C137.439 26.3113 137.466 27.0901 137.499 27.7479C137.502 28.321 137.669 28.882 137.981 29.3685C138.338 29.8434 138.804 30.2308 139.342 30.4999C140.215 30.9329 141.18 31.1601 142.16 31.1629V31.5891H128.068V31.1629C128.786 31.0492 129.492 30.8731 130.176 30.6366C130.794 30.4474 131.344 30.0938 131.765 29.6159C131.936 29.3874 132.054 29.1252 132.112 28.8477C132.209 28.4692 132.277 28.0839 132.312 27.6953C132.356 27.2638 132.394 26.8112 132.42 26.3272C132.447 25.8431 132.464 25.3747 132.464 24.9169C132.464 24.4592 132.464 23.9803 132.464 23.2964C132.464 22.6122 132.497 21.8651 132.513 21.0547C132.528 20.2444 132.513 19.4078 132.513 18.5553V7.74737C132.513 7.22118 132.513 6.69499 132.513 6.16879C132.513 5.6426 132.464 5.11642 132.42 4.67441C132.385 4.24315 132.312 3.81549 132.204 3.39577C132.141 3.0869 131.997 2.7989 131.786 2.55913C131.387 2.13191 130.879 1.81583 130.312 1.64355C129.661 1.47817 128.997 1.35859 128.329 1.28574V0.833221H130.128C131.126 0.833221 132.258 0.833221 133.516 0.833221C134.772 0.833221 136.035 0.806911 137.309 0.806911H140.371C142.333 0.806911 144.079 0.864793 145.607 0.980554C147.067 1.07885 148.49 1.47131 149.785 2.13292C151.037 2.75797 152.11 3.67458 152.907 4.8007C153.741 6.0672 154.155 7.55076 154.094 9.05232C154.109 10.0285 153.906 10.9963 153.498 11.8885C153.113 12.7153 152.577 13.4677 151.916 14.1091C151.234 14.7654 150.456 15.3203 149.607 15.756C148.718 16.2125 147.791 16.5979 146.837 16.9083V17.0346C147.38 17.319 147.873 17.6868 148.295 18.1238C148.784 18.635 149.239 19.1764 149.655 19.7445C150.422 20.8285 151.25 21.9966 152.143 23.249C153.035 24.5013 153.833 25.6116 154.539 26.5797C155.399 27.8284 156.472 28.9247 157.714 29.8211C158.796 30.5267 160.032 30.9805 161.324 31.147V31.5733H152.295ZM147.959 4.96909C147.154 3.81036 146.027 2.89786 144.708 2.33812C144.016 2.02159 143.288 1.78833 142.54 1.64355C141.733 1.49823 140.915 1.42601 140.095 1.42782C139.483 1.42782 138.983 1.42782 138.6 1.46991C138.215 1.512 137.927 1.5278 137.722 1.55936C137.694 1.72774 137.662 1.87508 137.634 2.00663C137.597 2.16741 137.575 2.33125 137.569 2.49599C137.569 2.69594 137.537 2.97482 137.526 3.32736C137.516 3.67991 137.488 4.19032 137.456 4.8428C137.456 5.84255 137.406 6.94756 137.39 8.21568C137.375 9.48381 137.39 10.6783 137.39 11.8464V16.5453C138.593 16.5453 139.715 16.4945 140.756 16.3927C141.781 16.2957 142.791 16.0892 143.77 15.777C144.636 15.5275 145.453 15.1379 146.187 14.6247C146.822 14.1704 147.372 13.6133 147.813 12.9777C148.237 12.3709 148.558 11.7009 148.761 10.994C148.968 10.2711 149.072 9.52388 149.07 8.77344C149.09 7.42715 148.704 6.10451 147.959 4.96909Z" fill="#00859B"/>
<path d="M201.993 2.06982C201.321 2.52403 200.81 3.1692 200.531 3.91676C200.408 4.23207 200.326 4.56077 200.287 4.89547C200.211 5.35326 200.146 5.87945 200.086 6.47405C200.026 7.06865 199.983 7.70533 199.956 8.3736C199.928 9.04186 199.912 9.70485 199.912 10.3573C199.88 11.5834 199.847 12.9462 199.804 14.4564C199.761 15.9666 199.706 17.6714 199.646 19.5814C199.62 20.1076 199.582 20.8023 199.538 21.6283C199.485 22.5162 199.345 23.3972 199.122 24.2593C198.866 25.2266 198.489 26.1597 198 27.0376C197.449 28.005 196.714 28.8607 195.832 29.558C194.762 30.3781 193.538 30.986 192.227 31.3471C188.699 32.2171 185.002 32.2171 181.475 31.3471C180.179 30.9977 178.963 30.4119 177.892 29.6212C177.02 28.9639 176.284 28.1514 175.724 27.227C175.237 26.4209 174.854 25.5604 174.58 24.6645C174.348 23.9142 174.2 23.1413 174.142 22.3598C174.099 21.6652 174.077 21.1442 174.077 20.7812C174.077 19.9866 174.077 18.9448 174.077 17.6662C174.077 16.3875 174.077 14.9615 174.077 13.3935V6.21095C174.077 5.68476 174.077 5.22171 174.011 4.77972C173.973 4.37758 173.906 3.9785 173.812 3.58526C173.756 3.28251 173.625 2.99731 173.432 2.75388C173.033 2.27672 172.508 1.9131 171.915 1.7015C171.253 1.48458 170.566 1.34503 169.871 1.2858V0.833279H182.976V1.2858C182.564 1.34368 182.125 1.42787 181.654 1.53837C181.202 1.64427 180.771 1.82208 180.38 2.06456C179.976 2.31498 179.638 2.65379 179.394 3.05381C179.109 3.54985 178.956 4.10681 178.949 4.67447C178.922 5.4164 178.901 6.06888 178.884 6.63716C178.868 7.20546 178.884 7.76322 178.884 8.30519V16.7979C178.884 17.4556 178.884 18.0871 178.884 18.6974C178.884 19.3079 178.884 19.9603 178.884 20.6443C178.898 22.0448 179.136 23.4348 179.588 24.7644C179.983 25.925 180.612 26.9981 181.437 27.9216C182.237 28.7947 183.23 29.4818 184.341 29.9316C185.584 30.4181 186.915 30.6562 188.255 30.6315C189.69 30.6634 191.122 30.477 192.498 30.079C193.56 29.7592 194.546 29.2368 195.397 28.5425C196.169 27.9125 196.808 27.1443 197.278 26.2799C197.737 25.4139 198.077 24.4942 198.292 23.5437C198.51 22.5676 198.658 21.5776 198.732 20.5812C198.801 19.571 198.84 18.5817 198.84 17.6136V10.3521C198.84 9.78379 198.84 9.19971 198.84 8.59986C198.84 8 198.801 7.43698 198.775 6.895C198.747 6.35302 198.698 5.84261 198.644 5.37956C198.598 4.9928 198.503 4.61294 198.363 4.24826C198.078 3.46249 197.549 2.7832 196.845 2.30662C195.88 1.72169 194.79 1.3615 193.658 1.25423V0.833279H204.563V1.2858C203.658 1.36294 202.781 1.63048 201.993 2.06982Z" fill="#00859B"/>
<path d="M240.317 31.4891V31.0156C241.42 30.9946 242.504 30.7243 243.482 30.2262C244.21 29.8904 244.812 29.3374 245.194 28.6477C245.393 28.2048 245.528 27.7373 245.595 27.2585C245.683 26.7006 245.742 26.1386 245.768 25.5748C245.827 23.6945 245.856 21.902 245.856 20.197V2.86434L243.194 8.65245C242.386 10.4064 241.587 12.1271 240.799 13.8144C240.007 15.4982 239.21 17.2083 238.404 18.9606C237.596 20.7128 236.707 22.6439 235.743 24.7486C235.594 25.0327 235.388 25.48 235.124 26.0904C234.865 26.706 234.583 27.3322 234.334 27.9689C234.083 28.6056 233.818 29.1739 233.59 29.7001C233.363 30.2262 233.212 30.5736 233.152 30.7525H232.886C231.946 28.6477 231.016 26.5552 230.095 24.475C229.174 22.3949 228.27 20.3952 227.385 18.4764C226.507 16.5576 225.687 14.7562 224.925 13.0725C224.162 11.3886 223.472 9.89425 222.855 8.5893C222.242 7.28434 221.733 6.18461 221.336 5.30587C220.941 4.42713 220.671 3.82201 220.524 3.51155C220.524 5.39182 220.524 7.04931 220.524 8.48406C220.524 9.92057 220.496 11.3465 220.48 12.7567C220.465 14.1669 220.48 15.6508 220.48 17.2189V22.6912C220.48 24.0278 220.524 25.1907 220.611 26.1693C220.653 27.026 220.862 27.867 221.228 28.6477C221.592 29.3231 222.158 29.8741 222.855 30.2262C223.786 30.6725 224.791 30.9557 225.824 31.0629V31.4891H214.324V31.0629C215.207 30.9134 216.056 30.6161 216.833 30.1842C217.481 29.7993 218.012 29.2546 218.372 28.6056C218.789 27.8074 219.071 26.9492 219.207 26.0641C219.399 24.8448 219.502 23.614 219.515 22.3808C219.57 21.16 219.618 19.713 219.646 18.0503C219.673 16.3875 219.69 14.5984 219.69 12.6883V7.27908C219.69 6.7108 219.69 6.01096 219.646 5.17432C219.644 4.49212 219.457 3.82244 219.104 3.23267C218.813 2.76726 218.423 2.36729 217.96 2.05927C217.527 1.78082 217.052 1.57121 216.551 1.43837C216.053 1.31208 215.63 1.21736 215.278 1.16475V0.759579H224.643L235.152 23.9909C236.442 21.2863 237.706 18.5957 238.945 15.9191C240.185 13.2426 241.291 10.8203 242.263 8.65245C243.245 6.48454 244.05 4.68322 244.679 3.24847C245.308 1.81196 245.672 0.980579 245.763 0.749056H255.129V1.18053C254.158 1.14267 253.199 1.39425 252.381 1.90142C251.792 2.30668 251.341 2.87263 251.086 3.52735C250.866 4.26323 250.748 5.02399 250.734 5.78996C250.672 6.81428 250.629 7.82457 250.603 8.82082C250.571 10.1889 250.555 11.5097 250.555 12.7936V21.281C250.555 22.7894 250.571 24.3838 250.603 26.0641C250.602 26.6148 250.639 27.165 250.711 27.7111C250.752 28.1632 250.879 28.604 251.086 29.0107C251.181 29.1569 251.292 29.2927 251.416 29.4159C251.658 29.675 251.931 29.9046 252.23 30.1001C252.637 30.3743 253.082 30.5937 253.552 30.7525C254.148 30.9477 254.771 31.0558 255.4 31.0735V31.4997L240.317 31.4891Z" fill="#00859B"/>
</svg>
