<svg width="73" height="46" viewBox="0 0 73 46" fill="none" xmlns="http://www.w3.org/2000/svg">
<path d="M14.3362 45.8405H13.5236V41.2169H13.477L11.2725 44.9251H11.1045L8.9002 41.2169H8.85345V45.8405H8.07812V39.7412H8.93755L11.2166 43.5801H11.2352L13.5144 39.7412H14.3362V45.8405Z" fill="#00859B"/>
<path d="M16.0586 42.7774C16.0586 41.8933 16.3854 41.1398 17.0393 40.5172C17.6931 39.8945 18.4932 39.583 19.4398 39.583C20.3798 39.583 21.1817 39.8945 21.8449 40.5172C22.508 41.1398 22.8395 41.8933 22.8395 42.7774C22.8395 43.6742 22.5094 44.4354 21.8494 45.0611C21.1895 45.687 20.3862 46 19.4398 46C18.4932 46 17.6931 45.687 17.0393 45.0611C16.3854 44.4354 16.0586 43.6742 16.0586 42.7774ZM16.9084 42.7774C16.9084 43.4749 17.1528 44.0665 17.6417 44.5522C18.1304 45.0378 18.7298 45.2808 19.4398 45.2808C20.1496 45.2808 20.752 45.0364 21.247 44.5475C21.7421 44.0588 21.9897 43.4686 21.9897 42.7774C21.9897 42.0925 21.7421 41.5089 21.247 41.0261C20.752 40.5437 20.1496 40.3022 19.4398 40.3022C18.7298 40.3022 18.1304 40.5437 17.6417 41.0261C17.1528 41.5089 16.9084 42.0925 16.9084 42.7774Z" fill="#00859B"/>
<path d="M29.1665 39.7412H29.9792V45.8405H29.2413L25.365 41.161H25.3557V45.8405H24.543V39.7412H25.2809L29.1571 44.4207H29.1665V39.7412Z" fill="#00859B"/>
<path d="M31.3984 40.4604V39.7412H36.9468V40.4604H34.5836V45.8405H33.771V40.4604H31.3984Z" fill="#00859B"/>
<path d="M43.0809 39.7412H43.959L41.1196 45.8405H40.363L37.5234 39.7412H38.4388L40.7366 44.8225H40.7927L43.0809 39.7412Z" fill="#00859B"/>
<path d="M48.6613 42.2725V42.9917H46.1955V45.1213H50.5014V45.8405H45.3828V39.7412H50.2867V40.4604H46.1955V42.2725H48.6613Z" fill="#00859B"/>
<path d="M52.8947 45.8405H52.082V39.7412H55.4446C56.1918 39.7412 56.7615 39.9468 57.1539 40.3577C57.4652 40.6878 57.621 41.0863 57.621 41.5534C57.621 41.9582 57.4932 42.313 57.238 42.6182C56.9826 42.9233 56.637 43.135 56.2012 43.2532L57.7051 45.8405H56.7803L55.3793 43.3559H52.8947V45.8405ZM55.4446 40.4604H52.8947V42.6367H55.6502C55.9801 42.6367 56.2573 42.531 56.4815 42.3191C56.7056 42.1076 56.8177 41.8492 56.8177 41.544C56.8177 41.2763 56.7211 41.0395 56.5282 40.834C56.2789 40.5851 55.9178 40.4604 55.4446 40.4604Z" fill="#00859B"/>
<path d="M58.6094 40.4604V39.7412H64.1577V40.4604H61.7946V45.8405H60.9819V40.4604H58.6094Z" fill="#00859B"/>
<path d="M1.75173 31.1143H0V20.9014H5.63059C6.93382 20.9014 7.919 21.2611 8.58654 21.9805C9.12853 22.5541 9.39984 23.2371 9.39984 24.0292C9.39984 24.7074 9.19651 25.299 8.78987 25.8044C8.38322 26.3103 7.83571 26.6936 7.14756 26.9541L9.58744 31.1143H7.56992L5.38032 27.1887H1.75173V31.1143ZM5.63059 22.4655H1.75173V25.6248H5.94333C6.40204 25.6248 6.80072 25.4682 7.1398 25.1554C7.47847 24.8425 7.64811 24.4673 7.64811 24.0292C7.64811 23.654 7.50725 23.3153 7.22575 23.0128C6.87115 22.648 6.33937 22.4655 5.63059 22.4655Z" fill="#00859B"/>
<path d="M18.7086 24.9991V26.563H14.783V29.5504H21.696V31.1143H13.0312V20.9014H21.3206V22.4655H14.783V24.9991H18.7086Z" fill="#00859B"/>
<path d="M33.2669 22.0746L32.2034 23.2945C31.8594 22.9818 31.369 22.7056 30.7331 22.4657C30.097 22.2259 29.3515 22.1058 28.4968 22.1058C27.8293 22.1058 27.2793 22.2259 26.8467 22.4657C26.4139 22.7056 26.1976 23.0755 26.1976 23.576C26.1976 23.8261 26.268 24.0323 26.4088 24.1938C26.5495 24.3557 26.7787 24.4781 27.097 24.5614C27.4149 24.6449 27.699 24.7021 27.9493 24.7333C28.1996 24.7648 28.5593 24.796 29.0286 24.8272C29.1325 24.8378 29.2109 24.8427 29.2631 24.8427C29.6279 24.864 29.9094 24.8848 30.1077 24.9054C30.3057 24.9264 30.5976 24.9681 30.9834 25.0305C31.369 25.093 31.674 25.1636 31.8984 25.2416C32.1225 25.32 32.3832 25.4398 32.6804 25.6013C32.9777 25.7632 33.2069 25.9482 33.3686 26.1566C33.5301 26.3652 33.6709 26.6257 33.791 26.9386C33.9106 27.2516 33.9708 27.606 33.9708 28.0022C33.9708 29.1701 33.5509 30.0328 32.7117 30.5905C31.8722 31.1482 30.7905 31.4275 29.4665 31.4275C27.3289 31.4275 25.4678 30.7134 23.8828 29.2846L24.9464 28.0647C26.3017 29.295 27.8188 29.9103 29.4977 29.9103C30.3004 29.9103 30.9546 29.7695 31.4605 29.488C31.9661 29.2064 32.2191 28.7896 32.2191 28.2368C32.2191 27.6423 31.979 27.2332 31.4997 27.0091C31.02 26.7849 30.2742 26.6312 29.2631 26.5477C28.8877 26.5269 28.5984 26.5061 28.3951 26.485C28.1918 26.4644 27.9154 26.433 27.5661 26.3913C27.2166 26.3497 26.9406 26.3001 26.7373 26.2427C26.534 26.1856 26.2939 26.1096 26.0177 26.0157C25.7413 25.922 25.5251 25.8075 25.3687 25.6718C25.2124 25.5364 25.0531 25.3772 24.8917 25.1947C24.73 25.0126 24.6153 24.7986 24.5477 24.5537C24.4797 24.3087 24.446 24.035 24.446 23.7324C24.446 23.159 24.5683 22.6586 24.8135 22.231C25.0583 21.8035 25.3896 21.4752 25.8066 21.2458C26.2235 21.0163 26.6589 20.8496 27.1125 20.7452C27.5661 20.6411 28.0483 20.5889 28.5593 20.5889C29.5391 20.5889 30.4463 20.7399 31.2806 21.0425C32.1148 21.345 32.7768 21.689 33.2669 22.0746Z" fill="#00859B"/>
<path d="M36.3672 25.9847C36.3672 24.483 36.9225 23.2084 38.0328 22.1607C39.1433 21.1127 40.5012 20.5889 42.107 20.5889C43.7126 20.5889 45.0787 21.1155 46.2047 22.1685C47.3307 23.2217 47.894 24.4937 47.894 25.9847C47.894 27.4966 47.3332 28.7818 46.2125 29.8399C45.0915 30.8983 43.7232 31.4275 42.107 31.4275C40.5012 31.4275 39.1433 30.9008 38.0328 29.8476C36.9225 28.7947 36.3672 27.5072 36.3672 25.9847ZM38.2126 25.9847C38.2126 27.0587 38.5905 27.9734 39.3466 28.7296C40.1023 29.4855 41.0226 29.8634 42.107 29.8634C43.2018 29.8634 44.1325 29.4828 44.8988 28.7216C45.6652 27.9606 46.0483 27.0483 46.0483 25.9847C46.0483 24.9211 45.6652 24.0168 44.8988 23.2711C44.1325 22.5257 43.2018 22.1528 42.107 22.1528C41.0122 22.1528 40.0895 22.5258 39.3389 23.2711C38.588 24.0168 38.2126 24.9211 38.2126 25.9847Z" fill="#00859B"/>
<path d="M53.0408 31.1143H51.2891V20.9014H56.9197C58.2229 20.9014 59.2081 21.2611 59.8756 21.9805C60.4176 22.5541 60.6889 23.2371 60.6889 24.0292C60.6889 24.7074 60.4856 25.299 60.0789 25.8044C59.6723 26.3103 59.1248 26.6936 58.4366 26.9541L60.8765 31.1143H58.859L56.6694 27.1887H53.0408V31.1143ZM56.9197 22.4655H53.0408V25.6248H57.2324C57.6911 25.6248 58.0898 25.4682 58.4289 25.1554C58.7675 24.8425 58.9372 24.4673 58.9372 24.0292C58.9372 23.654 58.7963 23.3153 58.5148 23.0128C58.1602 22.648 57.6284 22.4655 56.9197 22.4655Z" fill="#00859B"/>
<path d="M63.0117 22.4655V20.9014H72.7868V22.4655H68.783V31.1143H67.0312V22.4655H63.0117Z" fill="#00859B"/>
<path d="M25.4255 0.727539H23.9414V11.6443H25.4255V0.727539Z" fill="#00859B"/>
<path d="M29.2521 6.30022C29.6996 5.31923 30.8402 4.38288 32.4445 4.43237C34.7432 4.50357 35.3365 6.09791 35.2435 6.95071C35.1624 7.69776 34.2873 8.50852 31.9299 8.3121C29.6559 8.1231 28.9308 7.64584 28.9308 7.64584C28.9308 7.64584 28.9028 7.06569 29.2521 6.30022ZM34.359 8.92932C35.5918 8.60076 36.7572 7.96085 36.6241 6.49783C36.4977 5.10144 34.7592 3.7368 32.176 3.73926C29.6629 3.7417 27.4665 5.41892 27.4455 7.69649C27.4245 10.0045 29.2138 11.6582 31.6531 11.9238C34.5611 12.2401 36.2564 10.8206 36.2564 10.8206L35.9139 10.3376C35.9139 10.3376 34.2433 11.5137 31.7351 11.1493C29.0437 10.7581 28.9185 8.31255 28.9185 8.31255C28.9185 8.31255 29.644 8.72227 31.1009 8.96354C32.0382 9.11924 33.1396 9.25512 34.359 8.92932Z" fill="#00859B"/>
<path d="M43.9186 2.7293L42.2249 0L41.3516 0.523298L43.5628 2.9463L43.9186 2.7293Z" fill="#00859B"/>
<path d="M57.9867 5.78733C57.3864 4.40299 56.1317 3.72842 54.1419 3.80464C52.0987 3.88365 51.0243 5.45585 50.6406 6.16835V4.12785H49.4102V11.6297H50.8295V7.35918C51.0856 6.4409 51.8672 4.64554 54.0744 4.57878C56.8716 4.49483 56.839 7.35753 56.839 7.35753V11.6245H58.27V7.35333C58.27 7.35333 58.3335 6.58784 57.9867 5.78733Z" fill="#00859B"/>
<path d="M45.0237 9.5675C44.3657 10.4657 43.0788 10.9479 42.0033 11.0038C40.8865 11.0619 39.7571 10.621 39.622 9.47168C39.4906 8.35027 40.3595 7.54487 41.9066 7.39452C43.6665 7.22413 45.6431 7.74996 45.6431 7.74996C45.6431 7.74996 45.7196 8.6192 45.0237 9.5675ZM42.9314 3.6564C40.0288 3.58108 38.5818 4.91398 38.5818 4.91398L38.8594 5.34635C38.8594 5.34635 40.8767 3.98624 43.2609 4.39349C45.9407 4.85143 45.6579 7.11706 45.6579 7.11706C45.6579 7.11706 44.5378 6.73982 43.1637 6.63523C41.5133 6.50964 39.5277 6.68345 38.5534 7.91463C37.5968 9.12321 38.1243 11.7611 41.3416 11.8525C44.7404 11.9493 45.7941 9.4272 45.7941 9.4272V11.5539H47.1205V7.27967C47.1205 7.27967 47.1762 6.57053 46.7956 5.65143C46.5177 4.97945 45.6711 3.72723 42.9314 3.6564Z" fill="#00859B"/>
<path d="M19.4068 9.5675C18.7484 10.4657 17.4616 10.9479 16.3864 11.0038C15.2692 11.0619 14.1397 10.621 14.0046 9.47168C13.8737 8.35027 14.7421 7.54487 16.2897 7.39452C18.0495 7.22413 20.0257 7.74996 20.0257 7.74996C20.0257 7.74996 20.1023 8.6192 19.4068 9.5675ZM17.3141 3.6564C14.4115 3.58108 12.9645 4.91398 12.9645 4.91398L13.2421 5.34635C13.2421 5.34635 15.2593 3.98624 17.6436 4.39349C20.3234 4.85143 20.041 7.11706 20.041 7.11706C20.041 7.11706 18.9205 6.73982 17.5463 6.63523C15.896 6.50964 13.9103 6.68345 12.9365 7.91463C11.9794 9.12321 12.507 11.7611 15.7247 11.8525C19.1231 11.9493 20.1768 9.4272 20.1768 9.4272V11.5539H21.5036V7.27967C21.5036 7.27967 21.5588 6.57053 21.1787 5.65143C20.9008 4.97945 20.0542 3.72723 17.3141 3.6564Z" fill="#00859B"/>
</svg>
