<svg width="45" height="59" viewBox="0 0 45 59" fill="none" xmlns="http://www.w3.org/2000/svg">
<path d="M44.6875 22.8438C44.6875 42.8125 22.5 58.3438 22.5 58.3438C22.5 58.3438 0.3125 42.8125 0.3125 22.8438C0.3125 16.9593 2.6501 11.3158 6.81107 7.15482C10.972 2.99385 16.6155 0.65625 22.5 0.65625C28.3845 0.65625 34.028 2.99385 38.1889 7.15482C42.3499 11.3158 44.6875 16.9593 44.6875 22.8438Z" fill="#DC6B2F"/>
<path d="M37.011 18.9109L35.961 18.1995C35.7138 18.032 35.4514 17.8857 35.1704 17.7857C34.497 17.546 33.7636 17.5092 33.0626 17.6873L12.7374 22.7771C12.1152 22.932 11.457 22.8247 10.9155 22.4801L8.6449 21.0355L6 21.6198C6 21.6198 8.07317 23.8023 10.1579 25.7034C12.1719 27.5401 15.3016 26.5934 21.9346 25.1914L21.4585 29.5507C21.4463 29.6631 21.5434 29.7566 21.6547 29.7394L23.5555 29.4461C23.8114 29.4066 24.0431 29.2721 24.2048 29.0691L28.3795 23.8302C32.7732 22.8479 34.7131 22.487 36.9478 21.6831C38.0659 21.2809 39.4081 20.7542 39.0764 19.69C38.7968 18.7931 37.011 18.9109 37.011 18.9109ZM19.7544 19.9348L24.5616 18.6936L20.743 17.0436C20.6232 16.9918 20.4887 16.986 20.3649 17.0271L18.634 17.6018C18.5016 17.6458 18.4447 17.8025 18.518 17.9217L19.7544 19.9348Z" fill="white"/>
</svg>
