<svg width="90" height="98" viewBox="0 0 90 98" fill="none" xmlns="http://www.w3.org/2000/svg">
<circle cx="45" cy="45" r="45" fill="#006269"/>
<path d="M45 98L50.1962 89H39.8038L45 98Z" fill="#006269"/>
<path d="M29.7617 34.1138H27.4916V50.8123H29.7617V34.1138Z" fill="white"/>
<path d="M35.6048 42.6377C36.2893 41.1372 38.034 39.705 40.488 39.7807C44.004 39.8896 44.9116 42.3283 44.7693 43.6328C44.6452 44.7754 43.3067 46.0156 39.7008 45.7152C36.2225 45.4261 35.1134 44.696 35.1134 44.696C35.1134 44.696 35.0706 43.8086 35.6048 42.6377ZM43.4163 46.6593C45.3021 46.1567 47.0847 45.1779 46.8812 42.94C46.6878 40.8041 44.0286 38.7167 40.0773 38.7205C36.2332 38.7242 32.8736 41.2897 32.8414 44.7735C32.8093 48.3038 35.5462 50.8335 39.2775 51.2397C43.7255 51.7235 46.3188 49.5522 46.3188 49.5522L45.7947 48.8134C45.7947 48.8134 43.2394 50.6124 39.4028 50.055C35.2861 49.4566 35.0945 45.7158 35.0945 45.7158C35.0945 45.7158 36.2043 46.3426 38.4328 46.7116C39.8665 46.9498 41.5512 47.1576 43.4163 46.6593Z" fill="white"/>
<path d="M58.0533 37.1748L55.4626 33L54.1267 33.8004L57.5091 37.5067L58.0533 37.1748Z" fill="white"/>
<path d="M79.56 41.8519C78.6418 39.7344 76.7226 38.7026 73.6789 38.8192C70.5536 38.94 68.9103 41.3449 68.3233 42.4347V39.3136H66.4412V50.7885H68.6123V44.2563C69.004 42.8516 70.1996 40.1054 73.5757 40.0033C77.8544 39.8749 77.8046 44.2537 77.8046 44.2537V50.7805H79.9934V44.2473C79.9934 44.2473 80.0905 43.0764 79.56 41.8519Z" fill="white"/>
<path d="M59.74 47.6336C58.7336 49.0075 56.7651 49.7451 55.12 49.8306C53.4117 49.9195 51.6841 49.245 51.4775 47.487C51.2765 45.7717 52.6055 44.5398 54.972 44.3098C57.6639 44.0492 60.6874 44.8535 60.6874 44.8535C60.6874 44.8535 60.8045 46.1831 59.74 47.6336ZM56.5396 38.5919C52.0997 38.4767 49.8863 40.5155 49.8863 40.5155L50.3109 41.1769C50.3109 41.1769 53.3967 39.0964 57.0436 39.7194C61.1427 40.4198 60.7101 43.8854 60.7101 43.8854C60.7101 43.8854 58.9968 43.3084 56.8949 43.1484C54.3705 42.9563 51.3333 43.2221 49.843 45.1054C48.3797 46.954 49.1866 50.989 54.1078 51.1288C59.3067 51.2768 60.9185 47.419 60.9185 47.419V50.6721H62.9473V44.1341C62.9473 44.1341 63.0324 43.0494 62.4504 41.6435C62.0253 40.6157 60.7303 38.7003 56.5396 38.5919Z" fill="white"/>
<path d="M20.5528 47.6336C19.5456 49.0075 17.5774 49.7451 15.9328 49.8306C14.2239 49.9195 12.4961 49.245 12.2896 47.487C12.0892 45.7717 13.4176 44.5398 15.7848 44.3098C18.4767 44.0492 21.4995 44.8535 21.4995 44.8535C21.4995 44.8535 21.6166 46.1831 20.5528 47.6336ZM17.3518 38.5919C12.9119 38.4767 10.6985 40.5155 10.6985 40.5155L11.1231 41.1769C11.1231 41.1769 14.2087 39.0964 17.8557 39.7194C21.9549 40.4198 21.5229 43.8854 21.5229 43.8854C21.5229 43.8854 19.809 43.3084 17.707 43.1484C15.1826 42.9563 12.1453 43.2221 10.6557 45.1054C9.19181 46.954 9.99879 50.989 14.9206 51.1288C20.1188 51.2768 21.7307 47.419 21.7307 47.419V50.6721H23.76V44.1341C23.76 44.1341 23.8445 43.0494 23.2631 41.6435C22.838 40.6157 21.543 38.7003 17.3518 38.5919Z" fill="white"/>
</svg>
