<svg width="45" height="59" viewBox="0 0 45 59" fill="none" xmlns="http://www.w3.org/2000/svg">
<path d="M44.6875 22.8438C44.6875 42.8125 22.5 58.3438 22.5 58.3438C22.5 58.3438 0.3125 42.8125 0.3125 22.8438C0.3125 16.9593 2.6501 11.3158 6.81107 7.15482C10.972 2.99385 16.6155 0.65625 22.5 0.65625C28.3845 0.65625 34.028 2.99385 38.1889 7.15482C42.3499 11.3158 44.6875 16.9593 44.6875 22.8438Z" fill="#DC6B2F"/>
<path d="M22.5 31.7188C27.4015 31.7188 31.375 27.7453 31.375 22.8438C31.375 17.9422 27.4015 13.9688 22.5 13.9688C17.5985 13.9688 13.625 17.9422 13.625 22.8438C13.625 27.7453 17.5985 31.7188 22.5 31.7188Z" fill="white"/>
</svg>
